<?xml version="1.0" encoding="utf-8"?>
<!-- Generator: Adobe Illustrator 27.9.0, SVG Export Plug-In . SVG Version: 6.00 Build 0)  -->
<svg version="1.1" id="Layer_1" xmlns="http://www.w3.org/2000/svg" xmlns:xlink="http://www.w3.org/1999/xlink" x="0px" y="0px"
	 viewBox="0 0 267.5 143.5" style="enable-background:new 0 0 267.5 143.5;" xml:space="preserve">
<style type="text/css">
	.st0{fill:#FFFFFF;stroke:url(#SVGID_1_);stroke-width:8.5602;stroke-miterlimit:10;}
	
		.st1{fill:#FFFFFF;stroke:url(#SVGID_00000003100784479297899360000011154640458908676515_);stroke-width:8.5602;stroke-miterlimit:10;}
	
		.st2{fill:#FFFFFF;stroke:url(#SVGID_00000119117433484309293340000017269466115747756454_);stroke-width:8.5602;stroke-miterlimit:10;}
	
		.st3{fill:#FFFFFF;stroke:url(#SVGID_00000174563879597220937740000012279023444296051897_);stroke-width:8.5602;stroke-miterlimit:10;}
	
		.st4{fill:#FFFFFF;stroke:url(#SVGID_00000052097308322325508840000014355642056068598960_);stroke-width:8.5602;stroke-miterlimit:10;}
	
		.st5{fill:#FFFFFF;stroke:url(#SVGID_00000017517145885440772690000000978863381058812578_);stroke-width:8.5602;stroke-miterlimit:10;}
	
		.st6{fill:#FFFFFF;stroke:url(#SVGID_00000088133266325237317590000014949937930650995390_);stroke-width:8.5602;stroke-miterlimit:10;}
	
		.st7{fill:#FFFFFF;stroke:url(#SVGID_00000163785894105691867290000000794960212600810372_);stroke-width:8.5602;stroke-miterlimit:10;}
	
		.st8{fill:#FFFFFF;stroke:url(#SVGID_00000142174790781822870000000006117091212738870946_);stroke-width:8.5602;stroke-miterlimit:10;}
</style>
<linearGradient id="SVGID_1_" gradientUnits="userSpaceOnUse" x1="0" y1="108.3476" x2="177.5615" y2="108.3476">
	<stop  offset="0" style="stop-color:#F5841F"/>
	<stop  offset="1" style="stop-color:#FCB614"/>
</linearGradient>
<path class="st0" d="M122.3,97.4c-1.4-0.5-2.8-0.8-4.3-1.1c-3.5-0.6-7-0.8-10.6-0.7c-3.7,0.1-7.3,0.3-10.9,0.7
	c-4,0.5-8,1.2-11.9,2.2c-5.4,1.3-10.7,2.7-16.2,3.8c-3.5,0.7-7,1.4-10.5,2c-2.9,0.5-5.7,1.1-8.6,1.5c-2.2,0.4-4.4,0.6-6.5,0.8
	c-2.6,0.3-5.2,0.2-7.8,0.3c-2.8,0.1-5.5,0-8.2-0.1c-2.7-0.1-5.4-0.5-8.1-1c-4.3-0.7-8.6-1.7-12.8-2.7c-0.3-0.1-0.6-0.1-0.9-0.2
	c-0.6-0.2-0.9-1-0.5-1.5c0.1-0.1,0.3-0.2,0.5-0.2c0.5,0,1,0.1,1.5,0.2c2.3,0.5,4.6,1.1,6.9,1.6c4,0.9,8,1.6,12.1,2
	c1.8,0.2,3.5,0.3,5.3,0.3c2.3,0,4.6,0,7,0c3.9-0.1,7.8-0.5,11.6-1.3c3.6-0.7,7.1-1.3,10.7-1.9c4.1-0.7,8.3-1.6,12.4-2.5
	c3.9-0.9,7.8-1.9,11.7-2.8c4.2-1,8.4-1.8,12.6-2.2c3-0.3,6-0.6,9.1-0.6c1.6,0,3.1-0.1,4.7-0.1c2.4,0,4.9,0.2,7.3,0.5
	c2.1,0.3,4.1,0.8,6.1,1.4c1.9,0.6,3.8,1.3,5.7,1.9c0.3,0.1,0.7,0.2,0.8,0.6c0.3,0.9,0,1.5-1,1.4c-0.3,0-0.7-0.1-1-0.2
	c-0.5-0.1-0.9-0.2-1.4-0.4c-1.2-0.3-2.3-0.2-3.5,0.1c-1.9,0.5-3.6,1.4-5.1,2.6c-1.8,1.4-3.4,3.1-4.8,4.9c-1.3,1.7-2.2,3.6-2.8,5.7
	c-0.3,1.2-0.3,2.5-0.1,3.7c0.4,2.6,1.4,4.9,2.8,7.1c1.2,2,2.7,3.8,4.3,5.4c0.5,0.5,1,1.1,1.6,1.6c2.1,2,4.5,3.5,7.2,4.6
	c2.5,1,5,1.8,7.7,2.2c2.7,0.4,5.4,0.4,8.1,0.2c6.8-0.7,12.8-3.4,18.2-7.4c1.1-0.8,2.2-1.8,3.1-2.9c1.6-1.9,3.1-3.8,4.3-6
	c1.5-2.8,2.4-5.7,2.7-8.8c0.3-2.7,0.3-5.3-0.1-8c-0.4-3-1.3-5.9-2.8-8.6c-1.6-3-3.6-5.8-6-8.3c-2.6-2.7-5.5-4.9-9-6.3
	c-2.7-1.1-5.5-1.7-8.4-1.5c-2.5,0.2-5,0.7-7.4,1.5c-2.3,0.8-4.5,1.8-6.6,2.9c-0.4,0.2-0.8,0.4-1.2,0.3c-0.5,0-0.7-0.2-0.7-0.7
	c0-0.5,0.1-0.9,0.6-1.2c3.6-1.7,7.2-3.4,11.1-4.1c3.1-0.6,6.2-0.7,9.3-0.1c3.5,0.6,6.6,2,9.4,4.1c3.2,2.3,5.8,5.2,8.1,8.4
	c2.6,3.6,4.4,7.6,5.4,12c0.7,3.2,1.1,6.5,0.4,9.8c-0.2,1.3-0.4,2.6-0.7,3.8c-0.6,2.4-1.6,4.6-2.9,6.7c-2.4,4-5.4,7.6-9.4,10.1
	c-1.3,0.8-2.5,1.6-3.9,2.3c-3.3,1.8-6.8,3.1-10.5,3.7c-2.8,0.5-5.7,0.7-8.6,0.5c-2-0.1-4.1-0.3-6.1-0.8c-2.4-0.6-4.8-1.4-7.1-2.5
	c-2.2-1-4.1-2.4-5.8-4c-1.7-1.6-3.2-3.2-4.6-5c-1.8-2.3-3.1-4.7-3.9-7.5c-0.7-2.3-1-4.7-0.6-7.1c0.1-0.8,0.3-1.5,0.6-2.3
	c0.8-2,1.8-3.9,3.2-5.4c1.1-1.2,2.3-2.4,3.5-3.5c1.6-1.5,3.4-2.6,5.5-3.3c0.1,0,0.2-0.1,0.3-0.1C122.1,97.6,122.2,97.5,122.3,97.4z"
	/>
<linearGradient id="SVGID_00000103945026158954801310000005971771075461305772_" gradientUnits="userSpaceOnUse" x1="184.1591" y1="128.7514" x2="267.5312" y2="128.7514">
	<stop  offset="0" style="stop-color:#FCB614"/>
	<stop  offset="1" style="stop-color:#F58420"/>
</linearGradient>
<path style="fill:#FFFFFF;stroke:url(#SVGID_00000103945026158954801310000005971771075461305772_);stroke-width:8.5602;stroke-miterlimit:10;" d="
	M238.2,134.8c-4.6,0-9.1-0.8-13.4-2.2c-4.4-1.4-8.7-3.1-12.7-5.2c-1.8-1-3.7-1.8-5.7-2.3c-1.3-0.3-2.5-0.6-3.8-0.6
	c-4-0.3-7.9,0.1-11.8,1.1c-0.5,0.1-1.1,0.3-1.6,0.3c-0.4,0-0.6-0.1-0.7-0.5c-0.1-0.5,0-0.9,0.4-1c0.4-0.1,0.7-0.2,1.1-0.3
	c4.1-1.1,8.3-1.4,12.5-1.2c2.6,0.1,5.1,0.6,7.4,1.7c1.7,0.8,3.4,1.5,5,2.4c2.7,1.4,5.4,2.4,8.3,3.4c2,0.7,4,1.3,6.1,1.9
	c3,0.8,6.1,1.1,9.2,1c4.4-0.1,8.8-0.6,13-2c2.6-0.9,5.2-1.9,7.8-2.9c0.7-0.3,1.5-0.6,2.2-0.9c0.3-0.1,0.6-0.2,0.9-0.2
	c0.4,0,0.7,0.1,0.8,0.4c0.1,0.4,0,0.8-0.3,1c-0.1,0.1-0.3,0.1-0.4,0.2c-3.8,1.6-7.6,3.1-11.5,4.2c-1.9,0.6-3.9,0.9-5.9,1.2
	C242.8,134.5,240.5,134.6,238.2,134.8z"/>
<linearGradient id="SVGID_00000111165026988561563440000011609430981320128647_" gradientUnits="userSpaceOnUse" x1="64.1307" y1="41.2238" x2="111.3687" y2="41.2238">
	<stop  offset="0" style="stop-color:#F5841F"/>
	<stop  offset="1" style="stop-color:#FCB614"/>
</linearGradient>
<path style="fill:#FFFFFF;stroke:url(#SVGID_00000111165026988561563440000011609430981320128647_);stroke-width:8.5602;stroke-miterlimit:10;" d="
	M107.1,65.8c0,0.1-0.1,0.3-0.3,0.4c-0.3,0.2-0.6,0.1-0.9-0.1c-0.2-0.2-0.4-0.4-0.7-0.7c-1.4-1.6-2.8-3.1-4.3-4.7
	c-3.2-3.6-6.4-7.2-9.4-11c-4.7-5.9-9.3-12-13.5-18.3c-3-4.4-5.9-8.9-8.9-13.3c-0.2-0.3-0.4-0.7-0.6-1c-0.2-0.4-0.1-0.8,0.2-1
	c0.3-0.2,0.8-0.1,1.1,0.2c0.2,0.2,0.4,0.5,0.5,0.8c2.9,4.4,5.7,8.7,8.7,13.1c4.8,7,9.8,13.8,15.1,20.3c3.3,4,6.8,7.9,10.2,11.7
	c0.8,0.9,1.6,1.7,2.4,2.6C106.9,65.1,107.1,65.3,107.1,65.8z"/>
<linearGradient id="SVGID_00000007395936476676881810000004117329778445306268_" gradientUnits="userSpaceOnUse" x1="148.8152" y1="30.7554" x2="170.6926" y2="30.7554">
	<stop  offset="0.3317" style="stop-color:#FCB614"/>
	<stop  offset="0.7462" style="stop-color:#F5841F"/>
</linearGradient>
<path style="fill:#FFFFFF;stroke:url(#SVGID_00000007395936476676881810000004117329778445306268_);stroke-width:8.5602;stroke-miterlimit:10;" d="
	M164.9,4.4c1.4-0.4,1.6,0.1,1.5,1.2c-0.2,1-0.4,2-0.6,3c-1.3,6.1-2.6,12.1-4,18.2c-1.5,6.5-3,13-4.6,19.5c-0.8,3.2-1.5,6.5-2.3,9.7
	c-0.1,0.3-0.1,0.5-0.3,0.8c-0.2,0.3-0.6,0.4-0.9,0.4c-0.4-0.1-0.6-0.4-0.6-0.8c0-0.4,0.1-0.8,0.2-1.2c1.5-6.1,3-12.2,4.4-18.3
	c1.7-7.4,3.4-14.8,5.1-22.2c0.7-3.1,1.3-6.2,1.9-9.2C164.7,5.2,164.8,4.8,164.9,4.4z"/>
<linearGradient id="SVGID_00000153687922775335377830000011882147346387081638_" gradientUnits="userSpaceOnUse" x1="185.6307" y1="65.958" x2="228.2672" y2="65.958">
	<stop  offset="0.3216" style="stop-color:#FCB614"/>
	<stop  offset="0.7236" style="stop-color:#F5841F"/>
</linearGradient>
<path style="fill:#FFFFFF;stroke:url(#SVGID_00000153687922775335377830000011882147346387081638_);stroke-width:8.5602;stroke-miterlimit:10;" d="
	M189.9,77.7c0.1-0.1,0.1-0.4,0.3-0.5c0.4-0.4,0.8-0.7,1.2-1c3.2-2.5,6.5-5.1,9.7-7.6c6.6-5.2,13.5-9.9,20.5-14.5
	c0.3-0.2,0.6-0.4,0.9-0.6c0.2-0.1,0.4-0.2,0.5-0.2c0.3-0.1,0.7,0,0.8,0.3c0.2,0.3,0.2,0.7-0.1,1c-0.2,0.3-0.5,0.4-0.8,0.6
	c-2.6,1.8-5.2,3.5-7.8,5.3c-5.2,3.5-10.2,7.3-15.1,11.1c-2.9,2.2-5.7,4.5-8.5,6.7c-0.2,0.2-0.5,0.4-0.8,0.4
	C190.2,78.7,189.9,78.4,189.9,77.7z"/>
<linearGradient id="SVGID_00000021830486444931437430000007731444975529555353_" gradientUnits="userSpaceOnUse" x1="168.9245" y1="50.3564" x2="204.0297" y2="50.3564">
	<stop  offset="0.2563" style="stop-color:#FCB614"/>
	<stop  offset="0.6884" style="stop-color:#F5841F"/>
</linearGradient>
<path style="fill:#FFFFFF;stroke:url(#SVGID_00000021830486444931437430000007731444975529555353_);stroke-width:8.5602;stroke-miterlimit:10;" d="
	M199.7,36.3c0,0.5-0.2,0.8-0.4,1.1c-0.9,1.1-1.8,2.3-2.7,3.4c-2.7,3.3-5.4,6.6-8.2,9.8c-2,2.3-4.2,4.6-6.4,6.8
	c-2.2,2.3-4.5,4.6-6.8,6.9c-0.2,0.3-0.5,0.5-0.8,0.7c-0.4,0.3-0.8,0.2-1.1-0.1c-0.3-0.3-0.3-0.7,0-1.1c0.2-0.3,0.4-0.5,0.6-0.7
	c1.7-1.7,3.3-3.4,5-5c5.3-5.3,10.3-10.9,15-16.8c1.3-1.6,2.5-3.1,3.8-4.7c0.2-0.2,0.4-0.5,0.6-0.7c0.3-0.3,0.7-0.3,1-0.1
	C199.6,35.9,199.7,36.1,199.7,36.3z"/>
<linearGradient id="SVGID_00000047769744054521162690000013331549632707152283_" gradientUnits="userSpaceOnUse" x1="193.8452" y1="93.132" x2="240.7071" y2="93.132">
	<stop  offset="0.3317" style="stop-color:#FCB614"/>
	<stop  offset="0.7136" style="stop-color:#F5841F"/>
</linearGradient>
<path style="fill:#FFFFFF;stroke:url(#SVGID_00000047769744054521162690000013331549632707152283_);stroke-width:8.5602;stroke-miterlimit:10;" d="
	M199.1,97.5c-0.8,0-1.2-0.6-0.9-1.2c0.1-0.2,0.4-0.3,0.6-0.4c0.5-0.1,1-0.2,1.5-0.3c4.5-0.7,9-1.5,13.5-2.2
	c5.1-0.9,10.2-1.9,15.2-3.1c1.9-0.5,3.9-0.9,5.8-1.4c0.3-0.1,0.6-0.1,0.9-0.1c0.3,0,0.5,0.2,0.6,0.5c0.1,0.4,0,0.8-0.3,0.9
	c-0.2,0.1-0.5,0.2-0.8,0.2c-3.6,0.8-7.2,1.7-10.8,2.5c-4.7,1.1-9.5,1.9-14.2,2.7c-3.6,0.6-7.1,1.2-10.7,1.8
	C199.4,97.4,199.2,97.5,199.1,97.5z"/>
<linearGradient id="SVGID_00000079488491294627177840000009729875005595090319_" gradientUnits="userSpaceOnUse" x1="46.8534" y1="73.2988" x2="86.6047" y2="73.2988">
	<stop  offset="0" style="stop-color:#F5841F"/>
	<stop  offset="1" style="stop-color:#FCB614"/>
</linearGradient>
<path style="fill:#FFFFFF;stroke:url(#SVGID_00000079488491294627177840000009729875005595090319_);stroke-width:8.5602;stroke-miterlimit:10;" d="
	M81.5,82.6c-0.1-0.1-0.5-0.2-0.8-0.3c-1.5-0.9-3.1-1.8-4.6-2.7c-8-4.6-16-9.3-24-13.9c-0.2-0.1-0.4-0.2-0.6-0.4
	c-0.4-0.2-0.5-0.6-0.4-1c0.1-0.2,0.3-0.4,0.5-0.4c0.4,0,0.7,0.1,1,0.3c1.3,0.7,2.5,1.5,3.8,2.2c8.2,4.8,16.5,9.5,24.7,14.3
	c0.3,0.2,0.5,0.3,0.8,0.5c0.3,0.2,0.4,0.4,0.4,0.7C82.3,82.4,82.1,82.6,81.5,82.6z"/>
<linearGradient id="SVGID_00000132049213440362537020000003081246474621445790_" gradientUnits="userSpaceOnUse" x1="115.9748" y1="42.9557" x2="134.0888" y2="42.9557">
	<stop  offset="0" style="stop-color:#F5841F"/>
	<stop  offset="1" style="stop-color:#FCB614"/>
</linearGradient>
<path style="fill:#FFFFFF;stroke:url(#SVGID_00000132049213440362537020000003081246474621445790_);stroke-width:8.5602;stroke-miterlimit:10;" d="
	M129.8,59.3c0,0.6-0.2,0.9-0.6,0.9c-0.4,0.1-0.7-0.1-0.8-0.5c-0.1-0.4-0.2-0.8-0.3-1.3c-1.8-7.5-3.6-15-5.4-22.4
	c-0.7-2.8-1.5-5.6-2.2-8.4c-0.1-0.4-0.2-0.8-0.2-1.2c0-0.3,0.2-0.6,0.4-0.6c0.4-0.1,0.7,0,0.9,0.4c0.1,0.3,0.2,0.6,0.3,0.9
	c0.8,3.1,1.7,6.1,2.4,9.2c1.8,7.3,3.5,14.6,5.3,22C129.7,58.6,129.8,59,129.8,59.3z"/>
</svg>
