<?xml version="1.0" encoding="UTF-8" standalone="no"?>
<!DOCTYPE svg PUBLIC "-//W3C//DTD SVG 1.1//EN" "http://www.w3.org/Graphics/SVG/1.1/DTD/svg11.dtd">
<svg width="100%" height="100%" viewBox="0 0 1999 583" version="1.1" xmlns="http://www.w3.org/2000/svg" xmlns:xlink="http://www.w3.org/1999/xlink" xml:space="preserve" xmlns:serif="http://www.serif.com/" style="fill-rule:evenodd;clip-rule:evenodd;stroke-linejoin:round;stroke-miterlimit:2;">
    <g transform="matrix(1,0,0,1,-173.911,-190.83)">
        <g transform="matrix(4.16667,0,0,4.16667,0,0)">
            <g transform="matrix(1,0,0,1,411.815,153.467)">
                <path d="M0,12.492C-1.2,12.492 -2.438,12.7 -3.723,13.116C-4.998,13.532 -6.133,14.098 -7.105,14.816C-9.288,16.366 -10.375,18.067 -10.375,19.938C-10.375,20.817 -10.054,21.526 -9.411,22.064C-8.76,22.603 -7.891,22.867 -6.803,22.867C-5.642,22.867 -4.385,22.631 -3.043,22.149C-1.691,21.667 -0.473,21.025 0.643,20.212C1.616,19.513 2.409,18.709 3.015,17.802C3.629,16.905 3.931,16.083 3.931,15.346C3.931,14.457 3.581,13.767 2.892,13.267C2.201,12.766 1.238,12.511 0,12.492M0.529,23.122C-2.901,25.428 -6.35,26.58 -9.799,26.58C-11.604,26.58 -13.021,26.25 -14.032,25.589C-14.646,25.201 -15.138,24.653 -15.516,23.964C-15.894,23.273 -16.082,22.565 -16.082,21.846C-16.082,19.579 -15.071,17.377 -13.049,15.242C-11.027,13.116 -8.466,11.547 -5.367,10.555C-2.863,9.742 -0.35,9.336 2.164,9.336C2.381,9.336 2.599,9.346 2.797,9.365C4.016,9.421 4.658,9.45 4.734,9.45C5.509,9.45 6.18,9.128 6.728,8.476C7.285,7.834 7.56,7.069 7.56,6.18C7.56,5.169 7.162,4.375 6.369,3.808C5.575,3.251 4.46,2.967 3.024,2.967C0.273,2.967 -2.722,3.789 -5.943,5.433C-6.482,5.707 -6.917,5.849 -7.247,5.849C-7.805,5.849 -8.079,5.585 -8.079,5.046C-8.079,4.252 -7.38,3.364 -5.972,2.391C-3.118,0.379 0.661,-0.633 5.349,-0.633C7.824,-0.633 9.704,-0.208 10.999,0.643C11.642,1.049 12.171,1.616 12.577,2.353C12.983,3.1 13.182,3.846 13.182,4.602C13.182,6.294 12.35,8.892 10.687,12.379L6.671,20.798C6.283,21.677 6.095,22.64 6.095,23.67C6.095,24.058 5.537,24.643 4.432,25.428C3.326,26.212 2.495,26.609 1.937,26.609C1.531,26.609 1.172,26.382 0.841,25.919C0.52,25.456 0.359,24.927 0.359,24.341C0.359,24.03 0.416,23.623 0.529,23.122M-9.412,-14.117C-9.043,-14.117 -8.74,-14.004 -8.495,-13.786C-8.259,-13.559 -8.155,-13.295 -8.192,-12.983C-8.287,-12.132 -8.599,-11.188 -9.146,-10.139C-9.694,-9.099 -10.271,-8.324 -10.876,-7.833C-11.452,-7.37 -12.284,-6.898 -13.371,-6.416C-14.457,-5.934 -15.242,-5.697 -15.724,-5.697C-16.318,-5.697 -16.611,-6.029 -16.611,-6.699C-16.611,-7.304 -16.3,-8.211 -15.686,-9.421C-15.063,-10.63 -14.438,-11.537 -13.814,-12.152C-13.352,-12.595 -12.644,-13.03 -11.68,-13.465C-10.725,-13.899 -9.969,-14.117 -9.412,-14.117M-13.484,2.835L-15.809,7.314C-19.645,14.826 -21.771,19.815 -22.177,22.291C-22.319,22.914 -22.829,23.538 -23.698,24.143C-25.598,25.456 -26.893,26.108 -27.573,26.108C-27.96,26.108 -28.271,25.967 -28.518,25.683C-28.754,25.39 -28.877,25.022 -28.877,24.559C-28.877,22.603 -27.374,18.587 -24.36,12.52L-20.713,5.16C-20.269,4.252 -19.834,3.326 -19.409,2.391C-19.06,1.635 -18.738,1.115 -18.464,0.823C-18.189,0.538 -17.755,0.293 -17.16,0.095C-15.412,-0.501 -14.269,-0.794 -13.729,-0.794C-12.955,-0.794 -12.567,-0.378 -12.567,0.453C-12.567,0.841 -12.87,1.635 -13.484,2.835M-28.952,3.572L-39.092,10.139C-39.554,10.451 -39.781,10.734 -39.781,10.999C-39.781,11.292 -38.884,12.917 -37.098,15.866C-36.266,17.198 -35.293,18.549 -34.188,19.919C-33.081,21.299 -32.146,22.291 -31.391,22.896C-31.078,23.16 -30.918,23.349 -30.918,23.481C-30.918,23.614 -31.098,23.85 -31.447,24.2C-31.797,24.549 -32.184,24.851 -32.609,25.116C-33.733,25.815 -34.669,26.165 -35.435,26.165C-36.37,26.165 -37.447,25.513 -38.657,24.209C-39.866,22.914 -41.378,20.788 -43.183,17.83L-45.394,14.212C-45.62,13.843 -45.81,13.654 -45.979,13.654C-46.131,13.654 -46.272,13.825 -46.424,14.155L-47.917,17.859C-48.673,19.711 -49.164,21.1 -49.381,22.045C-49.514,22.631 -49.675,23.056 -49.854,23.302C-50.043,23.557 -50.449,23.916 -51.073,24.398C-52.49,25.466 -53.614,26.005 -54.428,26.005C-55.362,26.005 -55.835,25.371 -55.835,24.096C-55.835,23.207 -55.297,21.412 -54.229,18.709C-53.161,16.007 -51.252,11.614 -48.503,5.547L-44.071,-4.233L-43.429,-5.641C-42.635,-7.38 -42.144,-8.419 -41.936,-8.759C-41.737,-9.099 -41.444,-9.383 -41.057,-9.6C-40.556,-9.874 -39.819,-10.149 -38.837,-10.403C-37.863,-10.658 -37.098,-10.791 -36.54,-10.791C-35.746,-10.791 -35.35,-10.498 -35.35,-9.902C-35.35,-9.628 -35.566,-9.118 -36.011,-8.381C-37.825,-5.169 -39.517,-1.777 -41.104,1.805L-43.816,8.23C-43.873,8.353 -43.901,8.486 -43.901,8.618C-43.901,8.798 -43.816,8.892 -43.655,8.892C-43.58,8.892 -43.438,8.825 -43.239,8.694L-37.702,5.207C-35.113,3.534 -32.666,1.9 -30.332,0.312C-29.283,-0.425 -28.574,-0.86 -28.216,-1.001C-27.856,-1.143 -27.194,-1.209 -26.24,-1.209C-25.145,-1.209 -24.388,-1.143 -23.963,-1.001C-23.538,-0.86 -23.33,-0.614 -23.33,-0.245C-23.33,0.104 -23.623,0.435 -24.219,0.728C-25.636,1.54 -27.214,2.485 -28.952,3.572M-68.988,12.492C-70.188,12.492 -71.427,12.7 -72.711,13.116C-73.987,13.532 -75.121,14.098 -76.094,14.816C-78.277,16.366 -79.364,18.067 -79.364,19.938C-79.364,20.817 -79.042,21.526 -78.399,22.064C-77.748,22.603 -76.879,22.867 -75.792,22.867C-74.63,22.867 -73.373,22.631 -72.031,22.149C-70.68,21.667 -69.461,21.025 -68.346,20.212C-67.372,19.513 -66.579,18.709 -65.975,17.802C-65.36,16.905 -65.058,16.083 -65.058,15.346C-65.058,14.457 -65.407,13.767 -66.097,13.267C-66.787,12.766 -67.75,12.511 -68.988,12.492M-68.459,23.122C-71.89,25.428 -75.338,26.58 -78.787,26.58C-80.592,26.58 -82.009,26.25 -83.021,25.589C-83.635,25.201 -84.126,24.653 -84.504,23.964C-84.882,23.273 -85.07,22.565 -85.07,21.846C-85.07,19.579 -84.06,17.377 -82.037,15.242C-80.016,13.116 -77.455,11.547 -74.355,10.555C-71.852,9.742 -69.338,9.336 -66.824,9.336C-66.607,9.336 -66.39,9.346 -66.191,9.365C-64.973,9.421 -64.33,9.45 -64.254,9.45C-63.479,9.45 -62.809,9.128 -62.261,8.476C-61.703,7.834 -61.429,7.069 -61.429,6.18C-61.429,5.169 -61.826,4.375 -62.62,3.808C-63.413,3.251 -64.528,2.967 -65.965,2.967C-68.715,2.967 -71.71,3.789 -74.932,5.433C-75.471,5.707 -75.905,5.849 -76.236,5.849C-76.793,5.849 -77.067,5.585 -77.067,5.046C-77.067,4.252 -76.368,3.364 -74.96,2.391C-72.106,0.379 -68.327,-0.633 -63.641,-0.633C-61.165,-0.633 -59.284,-0.208 -57.989,0.643C-57.347,1.049 -56.817,1.616 -56.412,2.353C-56.006,3.1 -55.807,3.846 -55.807,4.602C-55.807,6.294 -56.639,8.892 -58.302,12.379L-62.317,20.798C-62.705,21.677 -62.894,22.64 -62.894,23.67C-62.894,24.058 -63.451,24.643 -64.557,25.428C-65.662,26.212 -66.493,26.609 -67.052,26.609C-67.458,26.609 -67.816,26.382 -68.147,25.919C-68.469,25.456 -68.629,24.927 -68.629,24.341C-68.629,24.03 -68.572,23.623 -68.459,23.122M-96.477,8.003L-97.411,17.547C-97.468,18.105 -97.354,18.379 -97.081,18.379C-96.731,18.379 -95.361,17.047 -92.98,14.382C-90.608,11.717 -88.199,8.816 -85.761,5.679C-85.487,5.33 -85.203,4.971 -84.929,4.593C-84.344,3.837 -83.776,2.986 -83.238,2.023C-82.889,1.399 -82.274,0.869 -81.386,0.445C-79.799,-0.293 -78.381,-0.661 -77.125,-0.661C-76.35,-0.661 -75.962,-0.434 -75.962,0.028C-75.962,0.255 -76.16,0.567 -76.566,0.973C-77.295,1.654 -77.984,2.372 -78.646,3.128L-90.722,16.498C-93.887,20.042 -96.287,22.517 -97.903,23.935C-99.519,25.343 -100.757,26.052 -101.626,26.052C-102.174,26.052 -102.562,25.825 -102.788,25.362C-103.006,24.899 -103.118,24.086 -103.118,22.924C-103.118,19.343 -102.731,14.391 -101.957,8.06L-101.598,5.179C-101.503,4.517 -101.446,3.931 -101.428,3.43C-101.408,2.608 -101.352,2.07 -101.267,1.833C-101.172,1.588 -100.908,1.323 -100.492,1.03C-99.235,0.123 -98.092,-0.331 -97.053,-0.331C-96.022,-0.331 -95.503,0.104 -95.503,0.973C-95.503,1.115 -95.606,1.739 -95.805,2.826C-95.956,3.487 -96.174,5.216 -96.477,8.003M-114.713,2.91C-116.093,2.91 -117.538,3.383 -119.031,4.338C-120.523,5.283 -121.895,6.596 -123.15,8.249C-124.237,9.695 -125.098,11.245 -125.712,12.917C-126.326,14.59 -126.638,16.158 -126.638,17.642C-126.638,18.899 -126.269,19.909 -125.541,20.694C-124.813,21.478 -123.869,21.875 -122.706,21.875C-121.365,21.875 -119.919,21.431 -118.379,20.543C-116.839,19.664 -115.469,18.492 -114.269,17.028C-113.144,15.648 -112.228,14.089 -111.52,12.35C-110.811,10.612 -110.451,9.081 -110.451,7.758C-110.451,6.265 -110.829,5.084 -111.575,4.242C-112.322,3.392 -113.361,2.949 -114.713,2.91M-112.001,-0.775C-109.686,-0.775 -107.899,-0.16 -106.643,1.068C-105.377,2.297 -104.744,4.044 -104.744,6.312C-104.744,8.382 -105.349,10.583 -106.559,12.917C-107.768,15.251 -109.459,17.481 -111.632,19.607C-113.928,21.856 -116.291,23.576 -118.729,24.757C-121.139,25.957 -123.453,26.552 -125.646,26.552C-127.62,26.552 -129.227,25.948 -130.465,24.738C-131.702,23.529 -132.317,21.979 -132.317,20.07C-132.317,17.377 -131.362,14.401 -129.463,11.131C-127.507,7.767 -125.041,5.046 -122.073,2.967C-118.587,0.492 -115.223,-0.756 -112.001,-0.775M-132.146,2.552L-136.021,11.33L-136.852,13.324L-137.797,15.506C-139.016,18.643 -139.696,20.58 -139.848,21.318C-139.97,21.988 -140.122,22.451 -140.273,22.716C-140.434,22.99 -140.764,23.302 -141.284,23.67C-143.183,25.059 -144.478,25.749 -145.158,25.749C-145.536,25.749 -145.857,25.551 -146.131,25.154C-146.405,24.757 -146.547,24.294 -146.547,23.756C-146.547,22.499 -145.252,18.974 -142.673,13.182C-142.229,12.152 -140.688,8.608 -138.043,2.552L-134.055,-5.783C-133.488,-6.926 -133.091,-7.758 -132.864,-8.277C-132.572,-8.976 -132.317,-9.44 -132.109,-9.656C-131.892,-9.874 -131.532,-10.091 -131.013,-10.29C-129.17,-10.942 -127.828,-11.263 -126.997,-11.263C-126.185,-11.263 -125.777,-10.942 -125.777,-10.29C-125.777,-9.959 -125.977,-9.477 -126.383,-8.825C-127.016,-7.776 -127.771,-6.36 -128.66,-4.592C-130.228,-1.399 -131.391,0.983 -132.146,2.552M-162.544,3.053L-154.824,4.847C-152.132,5.462 -150.204,6.209 -149.061,7.096C-147.823,8.051 -147.208,9.28 -147.208,10.772C-147.208,13.853 -150.034,17.17 -155.675,20.713C-161.382,24.294 -166.995,26.08 -172.514,26.08C-175.575,26.08 -177.795,25.466 -179.184,24.228C-180.384,23.151 -180.98,21.904 -180.98,20.457C-180.98,18.748 -180.375,17.217 -179.175,15.866C-178.24,14.798 -177.257,14.259 -176.246,14.259C-175.613,14.259 -175.301,14.552 -175.301,15.147C-175.301,15.289 -175.32,15.468 -175.357,15.667C-175.452,16.243 -175.499,16.697 -175.499,17.028C-175.499,18.322 -174.97,19.343 -173.912,20.098C-172.844,20.855 -171.398,21.232 -169.575,21.232C-167.524,21.232 -165.36,20.93 -163.074,20.316C-160.778,19.711 -158.85,18.927 -157.281,17.963C-155.032,16.603 -153.908,15.129 -153.908,13.541C-153.908,12.19 -154.976,11.263 -157.121,10.744L-165.946,8.665C-167.779,8.221 -169.149,7.815 -170.075,7.446C-171.001,7.077 -171.795,6.605 -172.485,6.01C-173.723,4.98 -174.337,3.582 -174.337,1.833C-174.337,-1.653 -171.719,-4.951 -166.475,-8.05C-161.675,-10.895 -156.639,-12.312 -151.357,-12.312C-146.32,-12.312 -143.797,-10.857 -143.797,-7.937C-143.797,-6.227 -144.714,-4.649 -146.538,-3.203C-148.059,-2.003 -149.334,-1.407 -150.393,-1.407C-150.875,-1.407 -151.111,-1.597 -151.111,-1.984C-151.111,-2.173 -151.007,-2.456 -150.808,-2.844C-150.44,-3.562 -150.251,-4.328 -150.251,-5.14C-150.251,-6.227 -150.658,-7.03 -151.47,-7.53C-152.283,-8.041 -153.558,-8.296 -155.288,-8.296C-158.462,-8.296 -161.335,-7.502 -163.905,-5.915C-166.192,-4.516 -167.335,-2.901 -167.335,-1.077C-167.335,0 -166.958,0.86 -166.201,1.512C-165.445,2.174 -164.226,2.684 -162.544,3.053" style="fill:rgb(0,174,239);fill-rule:nonzero;"/>
            </g>
        </g>
        <g transform="matrix(4.16667,0,0,4.16667,0,0)">
            <g transform="matrix(1,0,0,1,497.141,86.2306)">
                <path d="M0,7.538L6.707,9.589C9.508,10.42 11.723,11.331 13.334,12.309C15.694,13.708 16.867,15.516 16.867,17.698C16.867,21.703 13.546,25.969 6.902,30.478C0.797,34.614 -5.487,36.682 -11.951,36.682C-15.354,36.682 -18.122,36.243 -20.255,35.347C-21.46,34.842 -22.502,34.06 -23.364,33.002C-24.244,31.96 -24.684,30.951 -24.684,30.006C-24.684,28.476 -23.658,26.831 -21.622,25.089C-19.994,23.722 -18.691,23.038 -17.715,23.038C-17.08,23.038 -16.754,23.364 -16.754,23.998C-16.754,24.097 -16.771,24.243 -16.819,24.471L-16.819,24.715C-16.819,26.082 -15.924,27.223 -14.149,28.151C-12.358,29.079 -10.177,29.534 -7.604,29.534C-4.836,29.534 -2.149,29.03 0.455,28.004C2.246,27.304 3.663,26.392 4.737,25.236C5.796,24.097 6.333,22.924 6.333,21.719C6.333,20.026 4.656,18.707 1.318,17.746L-2.817,16.509C-5.683,15.679 -8.076,14.832 -9.981,13.937C-13.059,12.439 -14.605,10.501 -14.605,8.124C-14.605,6.186 -13.677,4.086 -11.821,1.839C-9.948,-0.391 -7.359,-2.573 -4.022,-4.657C2.751,-8.922 9.248,-11.056 15.483,-11.056C17.99,-11.056 20.091,-10.535 21.752,-9.476C23.429,-8.435 24.259,-7.115 24.259,-5.52C24.259,-3.517 22.826,-1.694 19.961,-0.033C18.512,0.797 17.291,1.204 16.298,1.204C15.63,1.204 15.239,0.716 15.108,-0.277C14.783,-2.915 12.716,-4.233 8.905,-4.233C5.568,-4.233 2.441,-3.42 -0.489,-1.775C-3.403,-0.147 -4.868,1.628 -4.868,3.533C-4.868,5.259 -3.24,6.594 0,7.538M-20.434,-3.436L-29.927,16.46C-32.254,21.198 -33.411,24.813 -33.411,27.288C-33.411,28.248 -33.345,29.03 -33.215,29.664C-33.117,30.185 -33.068,30.528 -33.068,30.723C-33.068,31.651 -34.225,32.79 -36.553,34.158C-38.653,35.396 -40.232,36.015 -41.274,36.015C-42.138,36.015 -42.87,35.494 -43.473,34.435C-44.075,33.393 -44.385,32.156 -44.385,30.723L-44.385,29.909C-44.319,28.981 -44.466,28.525 -44.808,28.525C-45.068,28.525 -45.361,28.688 -45.671,28.997C-47.706,30.886 -50.229,32.497 -53.258,33.849C-56.27,35.201 -58.907,35.884 -61.121,35.884C-64.15,35.884 -66.527,35.005 -68.253,33.263C-69.995,31.504 -70.858,29.127 -70.858,26.099C-70.858,23.885 -70.354,21.459 -69.327,18.853C-67.618,14.457 -66.364,11.511 -65.6,9.98L-61.171,1.156C-60.015,-0.945 -59.298,-2.866 -58.973,-4.625C-58.81,-5.373 -58.549,-5.943 -58.158,-6.285C-57.784,-6.643 -57.019,-7.034 -55.879,-7.474C-53.322,-8.467 -51.32,-8.956 -49.854,-8.956C-48.275,-8.956 -47.478,-8.174 -47.478,-6.611C-47.478,-5.943 -47.934,-4.722 -48.861,-2.947L-51.532,2.295L-53.486,6.301C-57.979,15.663 -60.227,21.279 -60.227,23.184C-60.227,24.471 -59.819,25.497 -58.989,26.31C-58.158,27.124 -57.116,27.532 -55.83,27.532C-53.616,27.532 -51.32,26.783 -48.96,25.268C-46.615,23.755 -44.449,21.654 -42.479,18.951C-40.786,16.688 -38.686,13.074 -36.178,8.092C-33.671,3.125 -31.717,-1.221 -30.35,-4.901C-30.138,-5.536 -29.828,-6.008 -29.422,-6.285C-29.03,-6.578 -28.168,-6.985 -26.833,-7.523C-24.244,-8.548 -22.241,-9.053 -20.809,-9.053C-19.604,-9.053 -19.001,-8.451 -19.001,-7.246C-19.001,-6.578 -19.474,-5.308 -20.434,-3.436M-88.508,-2.133C-90.95,-2.133 -93.49,-1.45 -96.144,-0.098C-98.781,1.253 -100.947,2.996 -102.673,5.161C-104.708,7.749 -106.401,10.647 -107.769,13.871C-109.136,17.095 -109.82,19.83 -109.82,22.061C-109.82,24.162 -109.25,25.773 -108.11,26.93C-106.955,28.069 -105.343,28.639 -103.242,28.639C-100.702,28.639 -98.017,27.857 -95.199,26.294C-92.399,24.747 -89.858,22.631 -87.596,19.961C-85.789,17.828 -84.372,15.532 -83.362,13.09C-82.337,10.632 -81.832,8.319 -81.832,6.121C-81.832,0.814 -84.063,-1.938 -88.508,-2.133M-96.99,-11.447L-99.416,-5.39C-99.611,-4.869 -99.709,-4.478 -99.709,-4.185C-99.709,-3.941 -99.579,-3.81 -99.335,-3.81C-99.14,-3.81 -98.456,-4.136 -97.283,-4.804C-93.815,-6.725 -91.08,-7.995 -89.077,-8.646C-87.075,-9.297 -84.909,-9.623 -82.581,-9.623C-79.243,-9.623 -76.72,-8.678 -75.01,-6.806C-73.105,-4.772 -72.145,-2.02 -72.145,1.449C-72.145,5.519 -73.333,9.817 -75.727,14.376C-78.104,18.919 -81.263,22.973 -85.219,26.538C-88.67,29.583 -92.415,32.009 -96.421,33.8C-100.426,35.607 -104.138,36.503 -107.541,36.503C-111.514,36.503 -114.607,35.494 -116.837,33.491C-118.971,31.586 -120.029,28.997 -120.029,25.725C-120.029,23.087 -119.215,19.358 -117.57,14.555C-115.941,9.752 -113.744,4.64 -111.009,-0.798L-106.189,-10.29C-103.747,-15.517 -102.33,-18.871 -101.956,-20.369C-101.533,-21.932 -101.093,-23.023 -100.621,-23.691C-100.133,-24.341 -99.286,-25.025 -98.049,-25.758C-94.076,-28.086 -91.34,-29.242 -89.843,-29.242C-88.882,-29.242 -88.41,-28.9 -88.41,-28.2C-88.41,-27.777 -88.638,-27.272 -89.077,-26.67C-90.348,-24.879 -91.683,-22.681 -93.066,-20.027C-94.434,-17.389 -95.753,-14.524 -96.99,-11.447M-120.517,-4.039L-124.522,3.679C-131.133,16.623 -134.796,25.22 -135.496,29.485C-135.74,30.56 -136.62,31.635 -138.118,32.677C-141.391,34.94 -143.621,36.063 -144.793,36.063C-145.461,36.063 -145.998,35.819 -146.421,35.33C-146.828,34.826 -147.04,34.191 -147.04,33.393C-147.04,30.023 -144.451,23.103 -139.258,12.65L-132.973,-0.033C-132.207,-1.596 -131.458,-3.192 -130.726,-4.804C-130.123,-6.106 -129.569,-7.002 -129.098,-7.506C-128.626,-7.995 -127.877,-8.418 -126.851,-8.76C-123.839,-9.786 -121.868,-10.29 -120.94,-10.29C-119.605,-10.29 -118.938,-9.574 -118.938,-8.141C-118.938,-7.474 -119.459,-6.106 -120.517,-4.039M-160.424,-3.859C-163.859,-3.859 -167.539,-1.775 -171.446,2.377C-172.813,3.809 -174.052,5.405 -175.158,7.147C-176.282,8.905 -176.836,10.11 -176.836,10.778C-176.836,11.543 -175.973,11.918 -174.263,11.918C-170.16,11.918 -166.61,11.185 -163.631,9.72C-161.466,8.645 -159.658,7.196 -158.193,5.356C-156.728,3.533 -155.995,1.79 -155.995,0.146C-155.995,-1.091 -156.386,-2.068 -157.167,-2.768C-157.948,-3.468 -159.023,-3.827 -160.424,-3.859M-176.982,16.933C-178.822,16.933 -179.75,18.691 -179.75,22.224C-179.75,24.519 -179.018,26.343 -177.536,27.711C-176.054,29.079 -174.084,29.763 -171.642,29.763C-165.275,29.763 -158.845,26.864 -152.315,21.084C-151.208,20.091 -150.312,19.602 -149.645,19.602C-148.782,19.602 -148.359,19.961 -148.359,20.693C-148.359,21.752 -149.254,23.298 -151.062,25.35C-152.853,27.402 -154.823,29.143 -156.988,30.577C-159.756,32.416 -162.947,33.914 -166.529,35.054C-170.128,36.21 -173.433,36.78 -176.461,36.78C-180.499,36.78 -183.723,35.722 -186.165,33.605C-188.591,31.488 -189.812,28.688 -189.812,25.187C-189.812,19.374 -187.63,13.367 -183.283,7.163C-179.619,1.954 -175.224,-2.166 -170.062,-5.194C-164.689,-8.304 -159.626,-9.867 -154.855,-9.867C-152.055,-9.867 -149.808,-9.151 -148.131,-7.718C-146.601,-6.416 -145.884,-4.738 -145.981,-2.67C-146.112,-0.131 -147.365,2.588 -149.775,5.47C-152.169,8.336 -155.181,10.745 -158.812,12.683C-164.119,15.549 -169.118,16.981 -173.791,16.981L-176.982,16.933ZM-219.07,19.277L-208.666,-2.899C-207.624,-5.129 -206.94,-6.464 -206.647,-6.92C-206.338,-7.359 -205.833,-7.767 -205.133,-8.158C-201.828,-9.899 -199.467,-10.779 -198.067,-10.779C-196.895,-10.779 -196.309,-10.226 -196.309,-9.102C-196.309,-8.304 -196.699,-7.278 -197.465,-6.008C-198.034,-5.015 -198.327,-4.429 -198.327,-4.233C-198.327,-3.859 -198.148,-3.664 -197.807,-3.664C-197.578,-3.664 -196.829,-4.104 -195.56,-4.999C-190.333,-8.695 -185.872,-10.535 -182.144,-10.535C-180.531,-10.535 -179.115,-10.209 -177.894,-9.574C-176.689,-8.939 -176.087,-8.206 -176.087,-7.393C-176.087,-6.367 -177.096,-5.113 -179.099,-3.615C-181.41,-1.873 -183.104,-0.994 -184.146,-0.994C-184.472,-0.994 -184.846,-1.14 -185.302,-1.417C-186.783,-2.345 -188.184,-2.801 -189.486,-2.801C-191.082,-2.801 -192.841,-2.296 -194.745,-1.303C-196.65,-0.294 -198.278,0.96 -199.613,2.491C-201.893,5.161 -204.368,9.247 -207.006,14.751C-209.643,20.254 -211.532,25.268 -212.687,29.778C-212.866,30.543 -213.225,31.163 -213.729,31.667C-214.234,32.156 -215.228,32.856 -216.693,33.784C-218.94,35.184 -220.617,35.884 -221.691,35.884C-223.222,35.884 -223.987,34.973 -223.987,33.165C-223.987,30.967 -222.343,26.343 -219.07,19.277M-238.722,-1.433L-233.382,-2.052C-232.551,-2.133 -230.418,-2.296 -226.983,-2.524C-223.547,-2.736 -221.512,-2.85 -220.877,-2.85C-218.94,-2.85 -217.768,-2.817 -217.394,-2.752C-216.465,-2.589 -216.009,-2.182 -216.009,-1.515C-216.009,-0.913 -216.774,-0.001 -218.305,1.204C-219.819,2.409 -221.366,3.337 -222.929,3.972C-224.638,4.672 -226.999,5.063 -229.979,5.161L-239.39,5.552C-241.539,5.633 -243.085,6.089 -244.014,6.903C-244.925,7.717 -245.983,9.524 -247.156,12.325C-248.588,15.63 -249.94,20.58 -251.21,27.206C-251.47,28.411 -251.829,29.241 -252.317,29.714C-252.789,30.169 -254.141,30.983 -256.371,32.156C-260.148,34.158 -262.558,35.168 -263.567,35.168C-264.496,35.168 -264.952,34.565 -264.952,33.361C-264.952,30.56 -263.552,25.22 -260.734,17.323C-257.918,9.443 -254.629,1.66 -250.884,-6.008L-246.635,-14.735C-245.902,-16.201 -245.544,-17.243 -245.544,-17.878C-245.544,-18.382 -245.707,-18.985 -246.016,-19.652C-246.342,-20.255 -246.504,-20.694 -246.504,-20.987C-246.504,-22.127 -245.723,-23.267 -244.144,-24.423C-242.564,-25.563 -240.725,-26.344 -238.592,-26.751C-235.661,-27.321 -231.412,-27.826 -225.843,-28.249C-220.291,-28.689 -215.212,-28.9 -210.637,-28.9C-207.934,-28.9 -206.11,-28.803 -205.165,-28.607C-204.237,-28.428 -203.766,-28.038 -203.766,-27.467C-203.766,-26.556 -205.084,-25.074 -207.722,-23.039C-208.991,-22.045 -210.311,-21.395 -211.662,-21.053C-213.014,-20.727 -215.276,-20.499 -218.451,-20.369L-226.413,-19.978C-229.442,-19.848 -231.509,-19.376 -232.633,-18.529C-233.772,-17.683 -235.124,-15.566 -236.719,-12.163C-239.356,-6.627 -240.676,-3.371 -240.676,-2.394C-240.676,-1.726 -240.187,-1.384 -239.194,-1.384C-239.031,-1.384 -238.885,-1.4 -238.722,-1.433" style="fill:rgb(0,174,239);fill-rule:nonzero;"/>
            </g>
        </g>
        <g transform="matrix(4.16667,0,0,4.16667,0,0)">
            <g transform="matrix(1,0,0,1,385.536,70.1596)">
                <path d="M0,-19.846C0.868,-19.846 1.581,-19.579 2.16,-19.066C2.718,-18.532 2.963,-17.909 2.873,-17.173C2.65,-15.168 1.915,-12.941 0.623,-10.469C-0.668,-8.019 -2.026,-6.192 -3.452,-5.034C-4.812,-3.943 -6.771,-2.829 -9.333,-1.693C-11.895,-0.557 -13.743,0 -14.879,0C-16.282,0 -16.973,-0.78 -16.973,-2.361C-16.973,-3.786 -16.237,-5.925 -14.79,-8.776C-13.319,-11.627 -11.85,-13.765 -10.38,-15.213C-9.289,-16.26 -7.618,-17.284 -5.346,-18.309C-3.097,-19.334 -1.314,-19.846 0,-19.846" style="fill:rgb(236,0,140);fill-rule:nonzero;"/>
            </g>
        </g>
        <g transform="matrix(4.16667,0,0,4.16667,0,0)">
            <g transform="matrix(1,0,0,1,159.48,140.276)">
                <path d="M0,0.076C0.038,0.064 0.075,0.052 0.112,0.039C0.109,0.027 0.106,0.014 0.104,0C0.06,0.023 0.028,0.047 0,0.076" style="fill:rgb(236,0,140);"/>
            </g>
        </g>
        <g transform="matrix(4.16667,0,0,4.16667,0,0)">
            <g transform="matrix(1,0,0,1,157.736,139.99)">
                <path d="M0,0.975C0.018,0.648 0.039,0.322 0.061,0C-0.015,0.325 -0.058,0.639 0,0.975" style="fill:rgb(236,0,140);"/>
            </g>
        </g>
        <g transform="matrix(4.16667,0,0,4.16667,0,0)">
            <g transform="matrix(1,0,0,1,86.6146,111.849)">
                <path d="M0,0.002C0,0.001 0.001,0.001 0.001,0L-0.002,0C-0.001,0 -0.001,0.001 0,0.002" style="fill:rgb(236,0,140);"/>
            </g>
        </g>
        <g transform="matrix(4.16667,0,0,4.16667,0,0)">
            <g transform="matrix(1,0,0,1,159.66,141.435)">
                <path d="M0,0.446L0.005,0.419C0.034,0.275 0.062,0.14 0.091,0C-0.014,0.179 -0.039,0.271 0,0.446" style="fill:rgb(236,0,140);"/>
            </g>
        </g>
        <g transform="matrix(4.16667,0,0,4.16667,0,0)">
            <g transform="matrix(-0.951034,0.309086,0.309086,0.951034,153.79,117.475)">
                <path d="M0.076,-0.022L0.161,-0.022C0.08,0.005 0.008,0.042 -0.058,0.081L-0.082,-0.019C-0.031,-0.022 0.022,-0.022 0.076,-0.022" style="fill:rgb(236,0,140);"/>
            </g>
        </g>
        <g transform="matrix(4.16667,0,0,4.16667,0,0)">
            <g transform="matrix(-0.242536,0.970143,0.970143,0.242536,157.11,141.372)">
                <path d="M0.313,-0.308L0.379,-0.308L0.237,0.26L0.239,0.244C0.261,0.052 0.29,-0.122 0.313,-0.308" style="fill:rgb(236,0,140);"/>
            </g>
        </g>
        <g transform="matrix(4.16667,0,0,4.16667,0,0)">
            <g transform="matrix(1,0,0,1,61.9979,170.156)">
                <path d="M0,-0.108C-0.093,-0.089 -0.186,-0.07 -0.275,-0.043L-0.056,0C-0.037,-0.035 -0.019,-0.072 0,-0.108" style="fill:rgb(236,0,140);"/>
            </g>
        </g>
        <g transform="matrix(4.16667,0,0,4.16667,0,0)">
            <g transform="matrix(1,0,0,1,170.572,82.2193)">
                <path d="M0,66.897C-0.189,67.474 -0.386,68.076 -0.587,68.708L-0.63,68.843L-0.769,68.875C-0.953,68.918 -1.138,68.966 -1.319,69.014L-1.756,69.129L-1.477,68.238C-0.869,66.32 0.395,62.328 1.042,57.598L1.536,57.587C2.076,60.562 1.206,63.219 0,66.897M-5.877,25.606L-6.053,25.675L-6.167,25.525C-9.456,21.232 -11.849,18.994 -13.961,17.019C-15.124,15.932 -16.222,14.904 -17.389,13.627L-17.661,13.33L-17.273,13.218C-16.196,12.909 -15.414,12.164 -14.585,11.376C-14.022,10.84 -13.44,10.286 -12.718,9.81C-10.913,8.627 -8.65,8.285 -5.786,7.853L-5.674,7.835C-4.402,6.956 -3.559,5 -2.743,3.107C-1.735,0.768 -0.783,-1.442 0.97,-1.771L1.38,-1.848C3.915,-2.317 5.917,-2.688 8.466,-5.034C11.291,-7.642 15.663,-14.552 15.862,-14.996C15.863,-14.997 15.863,-14.998 15.863,-14.999L15.864,-14.999C15.864,-15 15.865,-15.002 15.866,-15.003L15.904,-14.991L16.353,-14.913C16.352,-14.901 16.348,-14.884 16.34,-14.861L16.344,-14.86C12.672,-2.121 8.17,1.726 4.658,3.653C0.913,5.712 1.208,8.69 1.469,11.318C1.655,13.198 1.832,14.977 0.336,15.936C0.245,16.355 0.218,16.855 0.188,17.428C0.054,19.935 -0.129,23.369 -5.877,25.606M-4.219,51.468C-4.266,53.84 -4.266,56.299 -4.266,58.678L-4.266,58.76L-4.313,58.826C-4.387,58.926 -4.454,59.006 -4.512,59.077C-4.724,59.332 -4.781,59.401 -4.684,60.079L-4.667,60.203L-4.754,60.291C-5.087,60.624 -5.233,61.1 -5.375,61.559C-5.562,62.166 -5.756,62.793 -6.402,62.954L-6.572,62.996L-6.67,62.85C-6.707,62.795 -6.744,62.749 -6.777,62.706C-6.795,62.684 -6.812,62.662 -6.829,62.64C-7.248,62.648 -7.667,62.688 -8.062,62.729L-8.338,62.757L-8.338,62.48C-8.338,62.351 -8.318,62.222 -8.293,62.102C-8.727,61.983 -9.146,61.874 -9.529,61.796L-9.729,61.755L-9.729,61.551C-9.729,60.84 -10.631,60.312 -10.789,60.267L-11.011,60.204L-11.007,60.182L-11.842,60.182L-11.812,59.904C-11.766,59.496 -11.679,59.132 -11.594,58.781L-11.502,58.399L-11.218,58.547C-11.215,58.549 -11.211,58.55 -11.208,58.552L-11.183,58.277C-11.2,58.314 -11.219,58.357 -11.242,58.408L-11.553,58.386C-11.696,59.249 -12.051,60.274 -13.001,60.274L-13.103,60.274L-13.176,60.202C-13.287,60.093 -13.368,60.01 -13.442,59.934L-13.866,59.501L-14.053,60.252L-14.226,60.272C-14.595,60.314 -14.916,60.362 -15.237,60.41L-15.606,60.466L-15.339,59.381L-15.06,59.342C-14.935,59.325 -14.795,59.306 -14.666,59.288C-14.764,59.279 -14.869,59.261 -14.967,59.254L-15.255,59.234L-15.111,58.567C-14.847,57.363 -14.299,54.856 -14.783,54.185L-14.937,53.971L-14.716,53.829C-14.588,53.746 -14.478,53.675 -14.355,53.606C-14.03,48.628 -14.208,44.956 -14.962,40.961C-15.794,38.431 -15.89,38.141 -15.831,37.649C-15.943,37.616 -16.054,37.59 -16.156,37.566L-16.26,37.542L-16.281,37.062L-16.058,36.985C-16.066,36.921 -16.074,36.858 -16.082,36.795C-16.097,36.819 -16.112,36.844 -16.127,36.87L-16.591,36.76L-16.64,36.122C-16.699,36.173 -16.777,36.227 -16.907,36.227C-16.945,36.227 -16.986,36.222 -17.032,36.211L-17.052,36.206C-17.239,36.145 -17.379,35.802 -17.395,35.676C-17.411,35.545 -17.361,35.43 -17.262,35.367C-17.198,35.325 -17.128,35.305 -17.057,35.294L-17.152,35.163C-17.227,35.053 -17.276,34.94 -17.316,34.845L-17.479,34.502L-17.267,34.433C-17.48,34.298 -17.563,34.298 -17.826,34.298L-17.975,33.847L-17.719,33.655C-18.707,32.981 -19.596,31.563 -20.458,30.186C-21.383,28.709 -22.339,27.182 -23.208,27.012L-23.445,26.966L-23.407,26.728C-23.237,25.65 -23.955,25.37 -24.589,25.122C-24.697,25.079 -24.798,25.04 -24.886,24.999L-25.293,24.812L-24.92,24.564C-24.901,24.552 -24.883,24.539 -24.864,24.527C-26.496,23.504 -27.951,22.388 -29.246,21.394C-29.701,21.044 -30.145,20.704 -30.58,20.379C-30.779,20.348 -31.045,20.214 -31.712,19.879C-32.884,19.292 -35.321,18.068 -40.698,15.727C-47.479,14.638 -53.125,14.123 -58.408,14.123C-60.373,14.388 -61.64,14.656 -63.107,14.965C-64.17,15.19 -65.374,15.444 -67.045,15.737C-70.331,17.539 -73.491,19.722 -76.546,21.834L-76.967,22.125C-77.422,22.832 -80.039,25.625 -80.823,26.237C-80.807,26.309 -80.782,26.384 -80.758,26.454L-80.706,26.608L-80.827,26.718C-81.226,27.083 -81.633,27.484 -82.02,27.894C-81.544,28.034 -81.42,28.095 -81.345,28.249C-81.274,28.393 -81.328,28.527 -81.367,28.625L-81.433,28.791L-81.612,28.781C-82.645,28.726 -82.666,28.811 -82.791,29.289C-82.852,29.523 -82.936,29.843 -83.14,30.226C-83.19,30.319 -83.291,30.4 -83.403,30.464C-83.335,30.522 -83.276,30.589 -83.24,30.657C-83.161,30.804 -83.163,30.959 -83.245,31.082C-83.335,31.216 -83.492,31.293 -83.674,31.294L-83.675,31.294C-83.865,31.294 -84.037,31.213 -84.125,31.082C-84.216,30.947 -84.215,30.765 -84.124,30.593C-84.101,30.55 -84.066,30.526 -84.037,30.493C-84.042,30.489 -84.048,30.489 -84.052,30.486C-84.113,30.529 -84.184,30.564 -84.269,30.576C-84.298,30.58 -84.329,30.582 -84.359,30.582C-84.504,30.582 -84.65,30.534 -84.765,30.445C-84.836,30.392 -84.878,30.316 -84.907,30.235C-85.105,30.564 -85.344,30.857 -85.583,31.139C-85.548,31.147 -85.511,31.155 -85.48,31.163C-85.365,31.189 -85.281,31.288 -85.253,31.432C-85.22,31.601 -85.275,31.759 -85.396,31.845C-85.502,31.912 -85.615,31.934 -85.724,31.934C-85.846,31.934 -85.963,31.907 -86.062,31.884L-86.09,31.876C-86.106,31.87 -86.115,31.854 -86.129,31.845C-86.202,31.952 -86.28,32.056 -86.341,32.171L-86.809,32.015C-86.617,30.827 -86.617,30.827 -83.918,24.124L-83.875,24.018L-83.769,23.981C-83.663,23.944 -83.561,23.929 -83.463,23.923C-83.216,22.987 -82.907,22.286 -81.814,21.878C-79.501,17.998 -73.535,14.338 -70.17,12.495C-69.415,12.255 -68.652,12.069 -67.976,11.913C-67.969,11.817 -67.954,11.716 -67.918,11.613L-67.871,11.481L-67.733,11.452C-64.932,10.866 -61.659,9.899 -58.494,8.964C-57.631,8.709 -56.772,8.456 -55.926,8.21L-55.724,8.152L-55.632,8.34C-55.609,8.385 -55.588,8.428 -55.568,8.472C-55.461,8.434 -55.372,8.387 -55.28,8.339C-54.981,8.182 -54.672,8.021 -53.867,8.155L-53.785,8.169C-53.784,8.165 -53.783,8.162 -53.782,8.158L-53.737,7.965L-52.128,7.965L-52.128,8.146C-52.108,8.119 -52.089,8.092 -52.07,8.065L-51.895,7.831L-51.515,8.217C-51.28,8.068 -51.165,8.066 -50.826,8.161L-50.698,8.201L-50.524,8.201C-48.409,8.201 -45.637,8.643 -42.957,9.071C-41.559,9.294 -40.114,9.524 -38.804,9.685C-36.688,9.452 -36.645,9.447 -35.867,9.594L-35.473,9.669L-35.713,9.99C-35.752,10.042 -35.788,10.094 -35.82,10.147C-35.014,10.154 -34.169,10.202 -32.84,10.524L-32.706,10.557L-32.662,10.688C-32.629,10.787 -32.597,10.883 -32.564,10.993C-31.939,11.041 -31.278,11.122 -30.548,11.215L-30.33,11.243L-30.33,11.463C-30.33,11.593 -30.33,11.746 -30.312,11.902C-29.368,12.106 -28.604,12.465 -27.863,12.814C-27.111,13.167 -26.401,13.501 -25.523,13.676L-25.367,13.707L-25.304,13.966C-25.275,14.086 -25.244,14.218 -25.2,14.349C-22.832,14.86 -19.361,18.546 -17.623,20.72C-12.799,22.833 -8.787,30.267 -6.178,36.443C-6.013,36.395 -5.854,36.395 -5.674,36.395L-5.462,36.395L-5.359,36.988C-3.153,49.385 -3.831,51.075 -4.219,51.468M-86.47,33.045L-87.281,33.045L-87.169,32.714C-87.118,32.562 -87.059,32.389 -86.925,32.251L-86.744,32.064L-86.565,32.252C-86.467,32.355 -86.37,32.496 -86.273,32.639L-86.01,33.029L-86.47,33.045ZM-88.224,13.676C-92.208,9.348 -93.17,4.173 -90.737,0.146C-90.011,-3.158 -92.19,-4.903 -93.363,-5.843C-93.674,-6.091 -93.919,-6.288 -94.054,-6.463C-95.42,-8.247 -95.604,-9.87 -95.799,-11.587C-95.979,-13.165 -96.164,-14.796 -97.331,-16.664L-97.57,-17.046L-97.119,-17.046C-97.075,-17.046 -92.639,-16.491 -91.753,-12.492C-91.185,-9.93 -88.476,-9.005 -86.857,-8.453C-86.429,-8.307 -86.091,-8.191 -85.87,-8.072L-85.794,-8.009C-84.604,-6.53 -84.025,-4.233 -83.411,-1.803C-82.881,0.297 -82.333,2.469 -81.356,4.272C-80.833,4.581 -80.088,4.594 -79.23,4.608C-77.215,4.642 -74.454,4.688 -72.421,8.89L-72.321,9.096L-72.517,9.213C-78.014,12.513 -81.874,15.662 -86.286,20.446L-86.719,20.253C-86.558,18.587 -87.076,17.102 -87.624,15.528C-87.834,14.926 -88.051,14.304 -88.224,13.676M-87.921,22.777C-89.152,23.917 -92.29,30.981 -92.686,32.334C-92.695,32.419 -92.705,32.505 -92.714,32.591L-92.75,32.95L-93.191,32.73L-93.223,32.575C-93.23,32.525 -93.217,32.436 -93.186,32.311C-92.749,28.493 -91.26,25.722 -88.853,22.264L-88.755,22.123L-88.588,22.164C-88.41,22.208 -88.2,22.264 -87.982,22.369L-87.651,22.528L-87.921,22.777ZM-23.22,9.472C-21.44,9.868 -20.484,10.486 -19.567,11.834L-19.302,12.222L-19.773,12.224C-20.232,12.224 -23.387,10.286 -23.516,9.778L-23.617,9.384L-23.22,9.472ZM-109.572,91.135C-109.746,91.191 -109.864,91.251 -109.978,91.307L-110.281,91.457L-110.249,91.459C-110.183,91.66 -110.118,91.858 -110.051,92.119L-109.992,92.347L-110.215,92.419C-110.391,92.477 -110.508,92.537 -110.625,92.595L-111.086,92.829L-110.988,92.325C-110.927,92.023 -110.859,91.727 -110.71,91.427L-110.417,91.447L-110.345,91.04C-110.288,90.749 -110.219,90.439 -110.065,90.138L-109.605,90.175L-109.585,90.234C-109.527,90.413 -109.467,90.599 -109.407,90.835L-109.349,91.062L-109.572,91.135ZM35.776,91.172C35.628,91.272 35.49,91.369 35.402,91.456L35.289,91.569L35.139,91.514C31.092,90.022 26.891,93.389 22.585,97.276C19.026,100.494 15.882,102.065 12.918,102.065C11.836,102.065 10.779,101.856 9.733,101.442C5.878,99.918 3.61,97.586 2.8,94.314C1.557,89.315 1.239,85.975 7.3,81.754L7.374,81.719C7.63,81.644 7.979,81.506 8.383,81.347C9.884,80.755 11.94,79.945 13.252,80.666C13.771,80.951 14.117,81.45 14.282,82.149C14.457,82.202 14.671,82.269 14.888,82.38L15.025,82.449L15.025,83.618L14.935,83.693C14.27,84.245 13.646,84.691 13.094,85.085C11.141,86.482 10.054,87.259 10.443,90.236C11.347,90.819 11.437,90.855 12.791,91.064C13.467,89.515 19.135,86.822 20.121,86.363C20.124,86.204 20.139,86.039 20.198,85.867L20.243,85.735L20.379,85.704C21.745,85.395 23.094,84.988 24.399,84.596C28.376,83.398 32.16,82.259 36.524,83.584L36.524,40.925C36.245,40.909 35.962,40.893 35.699,40.877C31.374,40.621 29.202,40.492 25.51,42.374C22.442,43.938 20.909,45.642 19.557,47.145C17.532,49.396 15.938,51.18 10.302,50.837C8.113,50.709 7.921,50.897 6.11,52.687C5.694,53.098 5.196,53.59 4.575,54.176L4.482,54.231C3.962,54.405 3.721,54.541 3.508,54.662C3.15,54.864 2.892,55.01 1.796,55.128L1.421,55.168L1.53,54.808C2.165,52.689 -0.025,36.995 -1.364,34.076L-0.92,33.847C0.448,36.223 0.741,36.16 2.357,35.817L2.747,35.735C6.585,34.947 9.083,36.622 11.09,37.969C12.699,39.049 13.97,39.902 15.481,39.391C16.528,39.036 17.626,38.283 18.79,37.486C20.696,36.18 22.857,34.7 25.454,34.513C28.197,34.319 30.057,34.656 31.15,35.551L31.15,35.552C32.725,36.855 34.524,37.681 36.524,38.055L36.524,-25.301C36.524,-31.417 31.521,-36.42 25.405,-36.42L-22.121,-36.42C-21.809,-35.601 -21.785,-34.61 -22.081,-33.447C-23.017,-29.794 -22.215,-27.567 -21.44,-25.413C-20.749,-23.492 -20.096,-21.678 -20.705,-19.057C-21.107,-17.322 -21.86,-16.458 -23,-15.15C-23.99,-14.015 -25.221,-12.603 -26.773,-10.007C-27.42,-7.213 -27.135,-5.661 -25.506,-3.179C-22.812,-2.391 -24.133,3.069 -24.926,6.347C-25.062,6.908 -25.177,7.382 -25.242,7.722L-25.3,8.026L-25.585,7.905C-31.804,5.271 -36.906,3.936 -40.751,3.936C-40.795,3.936 -40.838,3.936 -40.882,3.937L-41.136,3.939L-41.134,3.684C-41.074,-2.128 -40.772,-2.548 -39.629,-3.238C-39.502,-3.314 -39.365,-3.397 -39.216,-3.5C-36.774,-5.187 -36.115,-7.166 -36.942,-10.331C-37.382,-12.008 -37.346,-13.319 -36.819,-14.857C-35.85,-17.685 -34.222,-18.569 -32.498,-19.504C-31.032,-20.3 -29.516,-21.123 -28.193,-23.238L-28.111,-23.319C-26.764,-24.14 -26.738,-26.488 -26.715,-28.56C-26.705,-29.538 -26.694,-30.461 -26.543,-31.155L-26.519,-31.221C-26.048,-32.083 -25.432,-32.881 -24.835,-33.652C-24.118,-34.581 -23.452,-35.469 -23.038,-36.42L-61.59,-36.42C-60.752,-35.638 -60.027,-34.691 -59.435,-33.563C-56.866,-28.674 -57.245,-21.499 -58.947,-16.915C-58.947,-16.756 -58.949,-16.615 -58.951,-16.488C-58.965,-15.499 -58.965,-15.499 -57.755,-14.718C-57.568,-14.597 -57.355,-14.459 -57.112,-14.299C-53.658,-12.76 -51.808,-11.104 -51.324,-9.11C-50.848,-7.146 -51.724,-4.84 -54.08,-1.863C-53.567,-0.784 -53.33,0.03 -53.155,0.63C-52.721,2.12 -52.654,2.349 -49.422,2.818L-49.48,3.315C-56.789,2.67 -62.065,4.73 -68.743,7.335L-69.74,7.724L-69.537,7.196C-69.399,6.838 -69.042,6.31 -68.663,5.751C-68.389,5.345 -68.105,4.926 -67.888,4.548C-69.908,0.52 -68.69,-2.443 -67.145,-5.37C-66.911,-5.811 -66.686,-6.21 -66.475,-6.583C-65.395,-8.495 -64.743,-9.649 -65.421,-12.143C-65.671,-13.062 -66.009,-13.659 -66.334,-14.236C-67.004,-15.42 -67.582,-16.443 -66.862,-19.564L-66.836,-19.631C-65.012,-22.862 -63.554,-26.448 -62.732,-29.728C-62.737,-32.648 -62.921,-34.577 -64.26,-36.42L-117.713,-36.42C-123.829,-36.42 -128.833,-31.417 -128.833,-25.301L-128.833,92.199C-128.833,92.481 -128.811,92.758 -128.79,93.036C-127.18,90.209 -125.445,87.522 -123.74,84.892C-121.948,82.127 -120.095,79.268 -118.487,76.37L-118.415,76.241L-118.268,76.241C-117.805,76.241 -117.67,75.852 -117.488,75.218C-117.356,74.761 -117.22,74.288 -116.833,74.084C-116.673,73.999 -116.484,73.97 -116.273,74.002C-116.161,73.508 -116.005,72.968 -115.801,72.36L-115.768,72.262L-115.676,72.216C-115.019,71.887 -114.779,71.48 -114.517,70.749L-114.471,70.622L-114.341,70.59C-114.126,70.538 -113.879,70.524 -113.628,70.521C-113.625,70.271 -113.612,70.023 -113.559,69.809L-113.523,69.662L-113.376,69.626C-113.14,69.567 -112.863,69.557 -112.586,69.555C-112.274,68.745 -111.959,67.995 -111.68,67.328L-111.639,67.231L-111.542,67.192C-111.388,67.131 -111.238,67.072 -111.091,67.02C-111.179,66.972 -111.268,66.927 -111.359,66.88L-111.742,66.686L-111.396,66.443C-111.016,66.191 -110.625,66.056 -110.311,65.948C-110.302,65.945 -110.293,65.941 -110.284,65.939L-110.35,65.939L-110.35,64.851L-110.159,64.804C-109.915,64.744 -109.629,64.735 -109.345,64.734C-109.276,64.614 -109.218,64.51 -109.168,64.421C-108.907,63.952 -108.807,63.8 -108.422,63.623L-108.422,62.599L-108.231,62.552C-108.006,62.497 -107.744,62.485 -107.481,62.482C-107.428,62.187 -107.362,61.896 -107.245,61.607L-107.197,61.489L-107.073,61.459C-106.735,61.376 -106.369,61.291 -105.994,61.207C-106.071,61.166 -106.149,61.127 -106.225,61.089L-106.708,60.847L-106.211,60.635C-105.915,60.509 -105.625,60.386 -105.321,60.28C-105.333,60.275 -105.344,60.272 -105.355,60.268L-105.817,60.116L-105.424,59.829C-104.978,59.502 -104.661,59.24 -104.393,59.019C-103.78,58.513 -103.396,58.195 -102.321,57.798C-102.466,57.76 -102.606,57.729 -102.746,57.706L-102.793,57.225C-102.329,57.051 -101.87,56.878 -101.411,56.753C-101.409,56.483 -101.397,56.214 -101.339,55.983L-101.299,55.824L-101.137,55.798C-100.792,55.741 -100.453,55.732 -100.076,55.731C-99.768,54.496 -98.995,54.129 -98.308,53.804C-97.734,53.532 -97.238,53.296 -96.957,52.607L-96.917,52.508L-96.818,52.469C-96.542,52.359 -96.27,52.293 -95.945,52.234C-95.942,51.97 -95.931,51.709 -95.875,51.485L-95.828,51.295L-94.933,51.295L-94.88,50.969L-94.667,50.969C-94.447,50.969 -94.234,51.011 -94.026,51.062C-93.131,49.485 -90.693,48.405 -88.895,47.608L-88.55,47.454C-88.546,47.3 -88.531,47.134 -88.476,46.965L-88.436,46.843L-88.312,46.805C-87.545,46.567 -86.759,46.324 -85.978,46.134C-85.972,45.989 -85.955,45.835 -85.901,45.677L-85.861,45.559L-85.744,45.52C-85.408,45.408 -85.07,45.295 -84.691,45.182C-84.687,45.033 -84.67,44.874 -84.617,44.713L-84.561,44.542L-83.571,44.542C-83.555,44.501 -83.539,44.46 -83.523,44.418L-83.411,44.13L-83.287,44.098C-82.769,43.962 -82.322,43.747 -81.889,43.54C-81.375,43.293 -80.846,43.039 -80.191,42.908C-80.185,42.764 -80.168,42.616 -80.116,42.462L-80.066,42.316L-79.915,42.294C-79.34,42.211 -78.739,42.13 -78.13,42.047L-77.297,41.934C-77.291,41.793 -77.272,41.645 -77.219,41.493L-77.161,41.325L-76.983,41.325C-76.754,41.325 -76.531,41.37 -76.314,41.421C-75.747,40.72 -74.869,40.694 -73.941,40.666C-73.704,40.659 -73.457,40.652 -73.205,40.633C-73.152,40.373 -73.101,40.121 -73.049,39.911L-72.996,39.693L-72.773,39.723C-72.098,39.814 -70.7,39.446 -69.22,39.059C-66.731,38.406 -63.93,37.671 -62.74,38.571C-62.642,38.461 -62.533,38.37 -62.399,38.28L-62.32,38.228L-62.226,38.241C-45.778,40.501 -35.513,47.052 -31.712,57.712C-30.801,58.089 -30.635,59.322 -30.46,60.623C-30.298,61.822 -30.131,63.062 -29.417,63.777L-29.264,63.93L-29.393,64.103C-29.512,64.263 -29.608,64.458 -29.697,64.668L-28.691,64.869L-28.985,65.381C-29.422,66.135 -29.622,66.479 -28.999,67.415L-28.868,67.611L-29.057,67.753C-29.267,67.912 -29.431,68.069 -29.589,68.266C-29.094,71.87 -31.924,83.741 -36.095,85.659L-36.095,86.228L-36.233,86.297C-36.532,86.447 -37.003,86.873 -37.502,87.323C-38.171,87.927 -38.862,88.55 -39.414,88.773C-40.199,91.56 -47.621,94.683 -50.427,94.683L-50.607,94.683L-50.665,94.512C-50.777,94.176 -50.842,93.885 -50.899,93.607C-51.015,93.588 -51.136,93.588 -51.262,93.588L-51.512,93.588L-51.512,93.338C-51.512,92.304 -51.149,91.325 -50.541,90.72L-50.432,90.611L-49.241,91.004L-48.901,90.784C-47.106,89.627 -43.765,87.472 -43.143,85.545L-43.1,85.412L-42.964,85.379C-42.75,85.326 -42.502,85.313 -42.251,85.31C-42.248,85.061 -42.235,84.815 -42.182,84.6L-42.15,84.466L-42.019,84.422C-41.854,84.366 -41.69,84.35 -41.539,84.346C-41.305,83.7 -41.074,83.223 -40.87,82.798C-40.585,82.209 -40.361,81.744 -40.256,81.084L-40.236,80.955L-40.119,80.898C-37.925,79.827 -36.926,68.242 -36.917,64.776C-42.395,51.876 -50.572,49.35 -62.838,49.35C-67.15,50.386 -69.516,51.046 -71.082,51.483C-72.516,51.883 -73.319,52.107 -74.432,52.291C-75.395,53.133 -75.487,53.19 -76.842,53.532C-76.826,53.612 -76.802,53.699 -76.775,53.797L-76.701,54.078L-76.825,54.179C-77.54,54.764 -78.464,55.407 -79.442,56.088C-82.308,58.083 -85.874,60.565 -86.385,63.166L-86.419,63.341L-86.597,63.365C-87.701,63.514 -97.406,74.674 -97.833,75.836L-97.833,75.97L-97.937,75.992C-99.292,76.894 -100.36,78.324 -101.218,79.472L-101.278,79.552L-101.376,79.569C-103.066,79.858 -103.414,79.918 -103.554,80.066C-103.512,80.119 -103.471,80.175 -103.43,80.232C-102.931,79.798 -102.773,79.775 -101.757,79.714L-101.593,79.705L-101.519,79.851C-101.458,79.973 -101.335,80.157 -101.212,80.338L-101.478,80.722C-101.687,80.671 -101.895,80.62 -102.103,80.567C-102.742,81.306 -103.386,82.2 -104.065,83.144C-104.924,84.336 -105.811,85.569 -106.828,86.692L-107.263,86.524C-107.263,85.998 -106.456,84.583 -105.738,83.429L-106.213,83.429C-106.299,83.621 -106.365,83.809 -106.429,83.991C-106.633,84.572 -106.826,85.122 -107.563,85.531C-107.598,85.744 -107.598,86.009 -107.598,86.267L-107.598,86.585L-107.907,86.51C-108.059,86.473 -108.209,86.436 -108.36,86.397C-108.346,86.64 -108.312,86.91 -108.281,87.176C-108.259,87.121 -108.235,87.076 -108.214,87.017L-108.156,86.85L-107.979,86.85C-107.649,86.85 -107.309,86.85 -106.962,86.922L-106.409,87.038L-106.867,87.37C-107.179,87.596 -107.575,88.194 -107.923,88.722C-108.411,89.46 -108.727,89.918 -109.048,90.038L-109.479,90.197L-109.379,89.749C-109.251,89.173 -109.058,88.757 -108.858,88.375L-108.881,88.391C-109.038,88.499 -109.186,88.6 -109.281,88.695L-109.688,88.421C-109.662,88.359 -109.641,88.319 -109.617,88.269C-111.19,89.33 -112.175,91.933 -113.207,94.66C-114.414,97.853 -115.661,101.134 -118.01,102.523L-118.037,102.628L-118.08,102.564C-118.218,102.643 -118.361,102.715 -118.508,102.781C-118.202,102.834 -117.877,102.895 -117.546,103.005L-117.255,103.102L-117.379,103.317L-70.499,103.317C-76.143,93.12 -72.645,86.309 -62.901,81.058C-62.901,80.866 -62.901,80.672 -62.838,80.479C-56.537,77.777 -43.548,78.231 -49.206,88.965C-50.219,88.965 -51.8,88.756 -51.459,88.071C-50.81,86.751 -51.205,84.819 -54.351,85.431C-59.558,88.193 -63.997,91.216 -62.129,98.419C-61.102,99.126 -59.237,99.319 -58.271,100.671C-56.022,99.899 -48.178,100.282 -47.406,98.485C-46.697,98.356 -45.991,98.224 -45.219,98.098C-45.219,97.904 -45.219,97.713 -45.154,97.52C-42.968,97.004 -42.968,97.004 -40.718,95.846C-40.718,95.653 -40.718,95.461 -40.655,95.27C-39.562,94.95 -33.708,89.932 -33.58,89.482C-28.822,88.002 -23.999,83.307 -19.176,81.058C-18.792,79.899 -18.276,80.092 -17.248,79.773C-17.248,77.971 -7.087,73.533 -4.387,72.572C0.436,71.926 0.436,71.926 3.007,72.055C2.814,71.863 2.623,71.735 2.429,71.607C5.644,70.961 9.374,72.635 12.719,72.12C12.782,72.313 12.847,72.506 12.912,72.763C16.896,73.469 18.763,75.847 19.278,80.672C18.635,81.638 17.412,81.249 16.77,81.249C11.495,74.241 -0.914,80.801 -6.446,82.924L-6.446,83.501C-7.409,84.146 -7.409,84.146 -8.76,84.402C-9.145,85.622 -13.197,87.167 -14.225,87.617C-14.609,88.773 -22.456,93.084 -23.549,93.403C-23.679,93.594 -23.743,93.855 -23.806,94.112C-25.605,94.368 -25.479,95.14 -26.764,95.653C-27.214,97.067 -31.715,99.836 -33.195,100.154C-33.452,101.056 -34.417,101.248 -35.124,101.441C-35.188,101.697 -35.188,102.021 -35.188,102.34C-35.704,102.406 -36.151,102.471 -36.601,102.534C-36.942,102.804 -37.301,103.063 -37.669,103.317L25.405,103.317C31.521,103.317 36.524,98.314 36.524,92.199L36.524,91.431C36.283,91.345 36.039,91.259 35.776,91.172" style="fill:rgb(236,0,140);"/>
            </g>
        </g>
        <g transform="matrix(4.16667,0,0,4.16667,0,0)">
            <g transform="matrix(-0.101273,0.994859,0.994859,0.101273,65.9465,164.946)">
                <path d="M-0.736,-0.413C-0.628,-0.654 0.037,-0.77 0.398,-0.83C-0.085,-0.589 -0.494,-0.374 -0.736,-0.245C-0.748,-0.286 -0.753,-0.324 -0.75,-0.36C-0.748,-0.379 -0.743,-0.397 -0.736,-0.413" style="fill:rgb(236,0,140);"/>
            </g>
        </g>
    </g>
</svg>
