<?xml version="1.0" encoding="utf-8"?>
<!-- Generator: Adobe Illustrator 27.9.0, SVG Export Plug-In . SVG Version: 6.00 Build 0)  -->
<svg version="1.1" id="Layer_1" xmlns="http://www.w3.org/2000/svg" xmlns:xlink="http://www.w3.org/1999/xlink" x="0px" y="0px"
	 viewBox="0 0 268.1 184.6" style="enable-background:new 0 0 268.1 184.6;" xml:space="preserve">
<style type="text/css">
	.st0{fill:#FFFFFF;stroke:url(#SVGID_1_);stroke-width:8.5602;stroke-miterlimit:10;}
	
		.st1{fill:none;stroke:url(#SVGID_00000018232521094739707230000014014551110036905344_);stroke-width:8.5602;stroke-miterlimit:10;}
	
		.st2{fill:#FFFFFF;stroke:url(#SVGID_00000012446784470530695800000000356801423886472581_);stroke-width:8.5602;stroke-miterlimit:10;}
	
		.st3{fill:#FFFFFF;stroke:url(#SVGID_00000105425050536075864190000007600333136423006637_);stroke-width:8.5602;stroke-miterlimit:10;}
	
		.st4{fill:#FFFFFF;stroke:url(#SVGID_00000090995711883765947640000018112019992715104674_);stroke-width:8.5602;stroke-miterlimit:10;}
	
		.st5{fill:#FFFFFF;stroke:url(#SVGID_00000021810436656360489620000017709342861135010483_);stroke-width:8.5602;stroke-miterlimit:10;}
	
		.st6{fill:#FFFFFF;stroke:url(#SVGID_00000080173608282987824330000007028247463191493816_);stroke-width:8.5602;stroke-miterlimit:10;}
	
		.st7{fill:#FFFFFF;stroke:url(#SVGID_00000146496754399986397990000016016513590527447189_);stroke-width:8.5602;stroke-miterlimit:10;}
	
		.st8{fill:#FFFFFF;stroke:url(#SVGID_00000082368223900946058160000005235003139882457221_);stroke-width:8.5602;stroke-miterlimit:10;}
	
		.st9{fill:#FFFFFF;stroke:url(#SVGID_00000062167618979926257120000008000938343579316635_);stroke-width:8.5602;stroke-miterlimit:10;}
	.st10{stroke:#000000;stroke-width:0.4714;stroke-miterlimit:10;}
</style>
<g>
	<linearGradient id="SVGID_1_" gradientUnits="userSpaceOnUse" x1="0.3954" y1="108.4922" x2="177.9569" y2="108.4922">
		<stop  offset="0" style="stop-color:#F5841F"/>
		<stop  offset="1" style="stop-color:#FCB614"/>
	</linearGradient>
	<path class="st0" d="M122.7,97.5c-1.4-0.5-2.8-0.8-4.3-1.1c-3.5-0.6-7-0.8-10.6-0.7c-3.7,0.1-7.3,0.3-10.9,0.7
		c-4,0.5-8,1.2-11.9,2.2c-5.4,1.3-10.7,2.7-16.2,3.8c-3.5,0.7-7,1.4-10.5,2c-2.9,0.5-5.7,1.1-8.6,1.5c-2.2,0.4-4.4,0.6-6.5,0.8
		c-2.6,0.3-5.2,0.2-7.8,0.3c-2.8,0.1-5.5,0-8.2-0.1c-2.7-0.1-5.4-0.5-8.1-1c-4.3-0.7-8.6-1.7-12.8-2.7c-0.3-0.1-0.6-0.1-0.9-0.2
		c-0.6-0.2-0.9-1-0.5-1.5c0.1-0.1,0.3-0.2,0.5-0.2c0.5,0,1,0.1,1.5,0.2c2.3,0.5,4.6,1.1,6.9,1.6c4,0.9,8,1.6,12.1,2
		c1.8,0.2,3.5,0.3,5.3,0.3c2.3,0,4.6,0,7,0c3.9-0.1,7.8-0.5,11.6-1.3c3.6-0.7,7.1-1.3,10.7-1.9c4.1-0.7,8.3-1.6,12.4-2.5
		c3.9-0.9,7.8-1.9,11.7-2.8c4.2-1,8.4-1.8,12.6-2.2c3-0.3,6-0.6,9.1-0.6c1.6,0,3.1-0.1,4.7-0.1c2.4,0,4.9,0.2,7.3,0.5
		c2.1,0.3,4.1,0.8,6.1,1.4c1.9,0.6,3.8,1.3,5.7,1.9c0.3,0.1,0.7,0.2,0.8,0.6c0.3,0.9,0,1.5-1,1.4c-0.4,0-0.7-0.1-1-0.2
		c-0.5-0.1-0.9-0.2-1.4-0.4c-1.2-0.3-2.3-0.2-3.5,0.1c-1.9,0.5-3.6,1.4-5.1,2.6c-1.8,1.4-3.4,3.1-4.8,4.9c-1.3,1.7-2.2,3.6-2.8,5.7
		c-0.3,1.2-0.3,2.5-0.1,3.7c0.4,2.6,1.4,4.9,2.8,7.1c1.2,2,2.7,3.8,4.3,5.4c0.5,0.5,1,1.1,1.6,1.6c2.1,2,4.5,3.5,7.2,4.6
		c2.5,1,5,1.8,7.7,2.2c2.7,0.4,5.4,0.4,8.1,0.2c6.8-0.7,12.8-3.4,18.2-7.4c1.1-0.8,2.2-1.8,3.1-2.9c1.6-1.9,3.1-3.8,4.3-6
		c1.5-2.8,2.4-5.7,2.7-8.8c0.3-2.7,0.3-5.3-0.1-8c-0.4-3-1.3-5.9-2.8-8.6c-1.6-3-3.6-5.8-6-8.3c-2.6-2.7-5.5-4.9-9-6.3
		c-2.7-1.1-5.5-1.7-8.4-1.5c-2.5,0.2-5,0.7-7.4,1.5c-2.3,0.8-4.5,1.8-6.6,2.9c-0.4,0.2-0.8,0.4-1.2,0.3c-0.5,0-0.7-0.2-0.7-0.7
		c0-0.5,0.1-0.9,0.6-1.2c3.6-1.7,7.2-3.4,11.1-4.1c3.1-0.6,6.2-0.7,9.3-0.1c3.5,0.6,6.6,2,9.4,4.1c3.2,2.3,5.8,5.2,8.1,8.4
		c2.6,3.6,4.4,7.6,5.4,12c0.7,3.2,1.1,6.5,0.4,9.8c-0.2,1.3-0.4,2.6-0.7,3.8c-0.6,2.4-1.6,4.6-2.9,6.7c-2.4,4-5.4,7.6-9.4,10.1
		c-1.3,0.8-2.5,1.6-3.9,2.3c-3.3,1.8-6.8,3.1-10.5,3.7c-2.8,0.5-5.7,0.7-8.6,0.5c-2-0.1-4.1-0.3-6.1-0.8c-2.4-0.6-4.8-1.4-7.1-2.5
		c-2.2-1-4.1-2.4-5.8-4c-1.7-1.6-3.2-3.2-4.6-5c-1.8-2.3-3.1-4.7-3.9-7.5c-0.7-2.3-1-4.7-0.6-7.1c0.1-0.8,0.3-1.5,0.6-2.3
		c0.8-2,1.8-3.9,3.2-5.4c1.1-1.2,2.3-2.4,3.5-3.5c1.6-1.5,3.4-2.6,5.5-3.3c0.1,0,0.2-0.1,0.3-0.1C122.5,97.7,122.6,97.7,122.7,97.5z
		"/>
	
		<linearGradient id="SVGID_00000165914721732980734460000004249680099499938718_" gradientUnits="userSpaceOnUse" x1="0.3953" y1="116.6691" x2="143.5692" y2="116.6691">
		<stop  offset="0" style="stop-color:#4F64AD"/>
		<stop  offset="0.5559" style="stop-color:#50BCE7"/>
		<stop  offset="0.9581" style="stop-color:#FCB614"/>
	</linearGradient>
	
		<path style="fill:none;stroke:url(#SVGID_00000165914721732980734460000004249680099499938718_);stroke-width:8.5602;stroke-miterlimit:10;" d="
		M139.1,137.5c-1.4,0-2.9-0.1-4.3-0.3c-2.7-0.4-5.2-1.2-7.7-2.2c-2.7-1.1-5.1-2.6-7.2-4.6c-0.5-0.5-1.1-1-1.6-1.6
		c-1.6-1.7-3.1-3.4-4.3-5.4c-1.3-2.2-2.3-4.5-2.8-7.1c-0.2-1.3-0.2-2.5,0.1-3.7c0.5-2.1,1.4-4,2.8-5.7c1.4-1.8,3-3.4,4.8-4.9
		c1.5-1.2,3.2-2.1,5.1-2.6c1.2-0.3,2.3-0.4,3.5-0.1c0.5,0.1,0.9,0.2,1.4,0.4c0.3,0.1,0.7,0.1,1,0.2c0.9,0.1,1.2-0.5,1-1.4
		c-0.1-0.4-0.5-0.5-0.8-0.6c-1.9-0.6-3.8-1.3-5.7-1.9c-2-0.7-4-1.1-6.1-1.4c-2.4-0.4-4.8-0.5-7.3-0.5c-1.6,0-3.1,0.1-4.7,0.1
		c-3,0-6,0.3-9.1,0.6c-4.3,0.5-8.5,1.2-12.6,2.2c-3.9,1-7.8,1.9-11.7,2.8c-4.1,0.9-8.2,1.8-12.4,2.5c-3.6,0.6-7.1,1.3-10.7,1.9
		c-3.8,0.7-7.7,1.1-11.6,1.3c-2.3,0.1-4.6,0.1-7,0c-1.8,0-3.5-0.1-5.3-0.3c-4.1-0.4-8.1-1.1-12.1-2c-2.3-0.5-4.6-1.1-6.9-1.6
		c-0.5-0.1-1-0.2-1.5-0.2c-0.2,0-0.4,0.1-0.5,0.2c-0.4,0.5-0.1,1.3,0.5,1.5c0.3,0.1,0.6,0.2,0.9,0.2c4.2,1,8.5,2,12.8,2.7
		c2.7,0.5,5.4,0.9,8.1,1c2.7,0.1,5.5,0.2,8.2,0.1c2.6-0.1,5.2-0.1,7.8-0.3c2.2-0.2,4.4-0.5,6.5-0.8c2.9-0.5,5.7-1,8.6-1.5
		c3.5-0.7,7-1.3,10.5-2c5.4-1.1,10.8-2.5,16.2-3.8c3.9-1,7.9-1.7,11.9-2.2c3.6-0.4,7.3-0.7,10.9-0.7c3.5-0.1,7.1,0.1,10.6,0.7
		c1.4,0.3,2.8,0.6,4.3,1.1c-0.1,0.2-0.1,0.2-0.2,0.2c-0.1,0.1-0.2,0.1-0.3,0.1c-2.1,0.7-3.9,1.8-5.5,3.3c-1.2,1.1-2.4,2.3-3.5,3.5
		c-1.5,1.6-2.5,3.4-3.2,5.4c-0.3,0.7-0.5,1.5-0.6,2.3c-0.4,2.4-0.1,4.8,0.6,7.1c0.8,2.7,2.2,5.2,3.9,7.5c1.4,1.8,3,3.5,4.6,5
		c1.7,1.6,3.6,3,5.8,4c2.3,1.1,4.7,1.9,7.1,2.5c2,0.5,4,0.7,6.1,0.8c0.5,0,1,0,1.5,0C139,138.7,139,138.1,139.1,137.5z"/>
	
		<linearGradient id="SVGID_00000177476389126833162990000010470846800684924343_" gradientUnits="userSpaceOnUse" x1="184.5545" y1="128.896" x2="267.9265" y2="128.896">
		<stop  offset="3.631285e-02" style="stop-color:#FCB614"/>
		<stop  offset="0.5251" style="stop-color:#4F64AD"/>
		<stop  offset="1" style="stop-color:#4FC7EE"/>
	</linearGradient>
	
		<path style="fill:#FFFFFF;stroke:url(#SVGID_00000177476389126833162990000010470846800684924343_);stroke-width:8.5602;stroke-miterlimit:10;" d="
		M238.6,134.9c-4.6,0-9.1-0.8-13.4-2.2c-4.4-1.4-8.7-3.1-12.7-5.2c-1.8-1-3.7-1.8-5.7-2.3c-1.3-0.3-2.5-0.6-3.8-0.6
		c-4-0.3-7.9,0.1-11.8,1.1c-0.5,0.1-1.1,0.3-1.6,0.3c-0.4,0-0.6-0.1-0.7-0.5c-0.1-0.5,0-0.9,0.4-1c0.4-0.1,0.7-0.2,1.1-0.3
		c4.1-1.1,8.3-1.4,12.5-1.2c2.6,0.1,5.1,0.6,7.4,1.7c1.7,0.8,3.4,1.5,5,2.4c2.7,1.4,5.4,2.4,8.3,3.4c2,0.7,4,1.3,6.1,1.9
		c3,0.8,6.1,1.1,9.2,1c4.4-0.1,8.8-0.6,13-2c2.6-0.9,5.2-1.9,7.8-2.9c0.7-0.3,1.5-0.6,2.2-0.9c0.3-0.1,0.6-0.2,0.9-0.2
		c0.4,0,0.7,0.1,0.8,0.4c0.1,0.4,0,0.8-0.3,1c-0.1,0.1-0.3,0.1-0.4,0.2c-3.8,1.6-7.6,3.1-11.5,4.2c-1.9,0.6-3.9,0.9-5.9,1.2
		C243.2,134.6,240.9,134.8,238.6,134.9z"/>
	
		<linearGradient id="SVGID_00000155861994794230860370000004544728328269074582_" gradientUnits="userSpaceOnUse" x1="64.5261" y1="41.3684" x2="111.7641" y2="41.3684">
		<stop  offset="0" style="stop-color:#F5841F"/>
		<stop  offset="1" style="stop-color:#FCB614"/>
	</linearGradient>
	
		<path style="fill:#FFFFFF;stroke:url(#SVGID_00000155861994794230860370000004544728328269074582_);stroke-width:8.5602;stroke-miterlimit:10;" d="
		M107.5,66c0,0.1-0.1,0.3-0.3,0.4c-0.3,0.2-0.6,0.1-0.9-0.1c-0.2-0.2-0.4-0.4-0.7-0.7c-1.4-1.6-2.8-3.1-4.3-4.7
		c-3.2-3.6-6.4-7.2-9.4-11c-4.7-5.9-9.3-12-13.5-18.3c-3-4.4-5.9-8.9-8.9-13.3c-0.2-0.3-0.4-0.7-0.6-1c-0.2-0.4-0.1-0.8,0.2-1
		c0.3-0.2,0.8-0.1,1.1,0.2c0.2,0.2,0.4,0.5,0.5,0.8c2.9,4.4,5.7,8.7,8.7,13.1c4.8,7,9.8,13.8,15.1,20.3c3.3,4,6.8,7.9,10.2,11.7
		c0.8,0.9,1.6,1.7,2.4,2.6C107.3,65.2,107.5,65.5,107.5,66z"/>
	
		<linearGradient id="SVGID_00000023253669533975658700000000714019020501322134_" gradientUnits="userSpaceOnUse" x1="149.2106" y1="30.9" x2="171.088" y2="30.9">
		<stop  offset="0.3317" style="stop-color:#FCB614"/>
		<stop  offset="0.7462" style="stop-color:#F5841F"/>
	</linearGradient>
	
		<path style="fill:#FFFFFF;stroke:url(#SVGID_00000023253669533975658700000000714019020501322134_);stroke-width:8.5602;stroke-miterlimit:10;" d="
		M165.3,4.6c1.4-0.4,1.6,0.1,1.5,1.2c-0.2,1-0.4,2-0.6,3c-1.3,6.1-2.6,12.1-4,18.2c-1.5,6.5-3,13-4.6,19.5c-0.8,3.2-1.5,6.5-2.3,9.7
		c-0.1,0.3-0.1,0.5-0.3,0.8c-0.2,0.3-0.6,0.4-0.9,0.4c-0.4-0.1-0.6-0.4-0.6-0.8c0-0.4,0.1-0.8,0.2-1.2c1.5-6.1,3-12.2,4.4-18.3
		c1.7-7.4,3.4-14.8,5.1-22.2c0.7-3.1,1.3-6.2,1.9-9.2C165.1,5.3,165.2,4.9,165.3,4.6z"/>
	
		<linearGradient id="SVGID_00000149380419946728495090000006536860245869794450_" gradientUnits="userSpaceOnUse" x1="186.0261" y1="66.1026" x2="228.6626" y2="66.1026">
		<stop  offset="0.3216" style="stop-color:#FCB614"/>
		<stop  offset="0.7236" style="stop-color:#F5841F"/>
	</linearGradient>
	
		<path style="fill:#FFFFFF;stroke:url(#SVGID_00000149380419946728495090000006536860245869794450_);stroke-width:8.5602;stroke-miterlimit:10;" d="
		M190.3,77.9c0.1-0.1,0.1-0.4,0.3-0.5c0.4-0.4,0.8-0.7,1.2-1c3.2-2.5,6.5-5.1,9.7-7.6c6.6-5.2,13.5-9.9,20.5-14.5
		c0.3-0.2,0.6-0.4,0.9-0.6c0.2-0.1,0.4-0.2,0.5-0.2c0.3-0.1,0.7,0,0.8,0.3c0.2,0.3,0.2,0.7-0.1,1c-0.2,0.3-0.5,0.4-0.8,0.6
		c-2.6,1.8-5.2,3.5-7.8,5.3c-5.2,3.5-10.2,7.3-15.1,11.1c-2.9,2.2-5.7,4.5-8.5,6.7c-0.2,0.2-0.5,0.4-0.8,0.4
		C190.6,78.9,190.3,78.6,190.3,77.9z"/>
	
		<linearGradient id="SVGID_00000127027199888433300510000015212084760042167192_" gradientUnits="userSpaceOnUse" x1="169.3199" y1="50.501" x2="204.4251" y2="50.501">
		<stop  offset="0.2563" style="stop-color:#FCB614"/>
		<stop  offset="0.6884" style="stop-color:#F5841F"/>
	</linearGradient>
	
		<path style="fill:#FFFFFF;stroke:url(#SVGID_00000127027199888433300510000015212084760042167192_);stroke-width:8.5602;stroke-miterlimit:10;" d="
		M200.1,36.4c0,0.5-0.2,0.8-0.4,1.1c-0.9,1.1-1.8,2.3-2.7,3.4c-2.7,3.3-5.4,6.6-8.2,9.8c-2,2.3-4.2,4.6-6.4,6.8
		c-2.2,2.3-4.5,4.6-6.8,6.9c-0.2,0.3-0.5,0.5-0.8,0.7c-0.4,0.3-0.8,0.2-1.1-0.1c-0.3-0.3-0.3-0.7,0-1.1c0.2-0.3,0.4-0.5,0.6-0.7
		c1.7-1.7,3.3-3.4,5-5c5.3-5.3,10.3-10.9,15-16.8c1.3-1.6,2.5-3.1,3.8-4.7c0.2-0.2,0.4-0.5,0.6-0.7c0.3-0.3,0.7-0.3,1-0.1
		C200,36,200.1,36.3,200.1,36.4z"/>
	
		<linearGradient id="SVGID_00000173858988008046284760000007195421049983862409_" gradientUnits="userSpaceOnUse" x1="194.2405" y1="93.2766" x2="241.1024" y2="93.2766">
		<stop  offset="0.3317" style="stop-color:#FCB614"/>
		<stop  offset="0.7136" style="stop-color:#F5841F"/>
	</linearGradient>
	
		<path style="fill:#FFFFFF;stroke:url(#SVGID_00000173858988008046284760000007195421049983862409_);stroke-width:8.5602;stroke-miterlimit:10;" d="
		M199.5,97.6c-0.8,0-1.2-0.6-0.9-1.2c0.1-0.2,0.4-0.3,0.6-0.4c0.5-0.1,1-0.2,1.5-0.3c4.5-0.7,9-1.5,13.5-2.2
		c5.1-0.9,10.2-1.9,15.2-3.1c1.9-0.5,3.9-0.9,5.8-1.4c0.3-0.1,0.6-0.1,0.9-0.1c0.3,0,0.5,0.2,0.6,0.5c0.1,0.4,0,0.8-0.3,0.9
		c-0.2,0.1-0.5,0.2-0.8,0.2c-3.6,0.8-7.2,1.7-10.8,2.5c-4.7,1.1-9.5,1.9-14.2,2.7c-3.6,0.6-7.1,1.2-10.7,1.8
		C199.8,97.6,199.6,97.6,199.5,97.6z"/>
	
		<linearGradient id="SVGID_00000006682622826094991310000015613848877324665507_" gradientUnits="userSpaceOnUse" x1="47.2487" y1="73.4434" x2="87.0001" y2="73.4434">
		<stop  offset="0" style="stop-color:#F5841F"/>
		<stop  offset="1" style="stop-color:#FCB614"/>
	</linearGradient>
	
		<path style="fill:#FFFFFF;stroke:url(#SVGID_00000006682622826094991310000015613848877324665507_);stroke-width:8.5602;stroke-miterlimit:10;" d="
		M81.9,82.8c-0.1-0.1-0.5-0.2-0.8-0.3c-1.5-0.9-3.1-1.8-4.6-2.7c-8-4.6-16-9.3-24-13.9c-0.2-0.1-0.4-0.2-0.6-0.4
		c-0.4-0.2-0.5-0.6-0.4-1c0.1-0.2,0.3-0.4,0.5-0.4c0.4,0,0.7,0.1,1,0.3c1.3,0.7,2.5,1.5,3.8,2.2c8.2,4.8,16.5,9.5,24.7,14.3
		c0.3,0.2,0.5,0.3,0.8,0.5c0.3,0.2,0.4,0.4,0.4,0.7C82.7,82.6,82.5,82.8,81.9,82.8z"/>
	
		<linearGradient id="SVGID_00000023265490932115172480000000101782166197072523_" gradientUnits="userSpaceOnUse" x1="116.3702" y1="43.1003" x2="134.4841" y2="43.1003">
		<stop  offset="0" style="stop-color:#F5841F"/>
		<stop  offset="1" style="stop-color:#FCB614"/>
	</linearGradient>
	
		<path style="fill:#FFFFFF;stroke:url(#SVGID_00000023265490932115172480000000101782166197072523_);stroke-width:8.5602;stroke-miterlimit:10;" d="
		M130.2,59.4c0,0.6-0.2,0.9-0.6,0.9c-0.4,0.1-0.7-0.1-0.8-0.5c-0.1-0.4-0.2-0.8-0.3-1.3c-1.8-7.5-3.6-15-5.4-22.4
		c-0.7-2.8-1.5-5.6-2.2-8.4c-0.1-0.4-0.2-0.8-0.2-1.2c0-0.3,0.2-0.6,0.4-0.6c0.4-0.1,0.7,0,0.9,0.4c0.1,0.3,0.2,0.6,0.3,0.9
		c0.8,3.1,1.7,6.1,2.4,9.2c1.8,7.3,3.5,14.6,5.3,22C130.1,58.8,130.1,59.1,130.2,59.4z"/>
</g>
<g>
	<path class="st10" d="M47.3,163.9h10.3l-0.4,2.1h-7.8l-1.3,6.9h7.2l-0.4,2.1h-7.2l-1.8,9.2h-2.5L47.3,163.9z"/>
	<path class="st10" d="M56.8,184.3l1.8-9.4c0.4-1.9,0.6-3.8,0.8-5.2h2.2c-0.1,1-0.2,2.1-0.4,3.2h0.1c0.9-2,2.5-3.5,4.5-3.5
		c0.2,0,0.5,0,0.7,0.1l-0.5,2.5c-0.2,0-0.4-0.1-0.7-0.1c-2.2,0-4.1,2.6-4.7,6l-1.2,6.4H56.8z"/>
	<path class="st10" d="M76.7,183.4c-1.1,0.6-2.9,1.2-4.8,1.2c-3.9,0-5.6-2.7-5.6-5.9c0-4.4,3.3-9.4,8-9.4c2.8,0,4.3,1.7,4.3,3.7
		c0,3.8-4.3,4.9-9.7,4.8c-0.1,0.6,0,2,0.3,2.8c0.6,1.3,1.8,2,3.3,2c1.7,0,3-0.5,3.9-1L76.7,183.4z M76.2,173.1
		c0-1.2-0.9-1.8-2.2-1.8c-2.4,0-4.2,2.3-4.8,4.6C73.1,175.9,76.2,175.4,76.2,173.1L76.2,173.1z"/>
	<path class="st10" d="M79.9,184.3l2.8-14.6h2.5l-2.8,14.6H79.9z M84.6,167.1c-0.8,0-1.4-0.7-1.4-1.6c0-1,0.8-1.7,1.7-1.7
		s1.5,0.7,1.5,1.6C86.3,166.4,85.6,167.1,84.6,167.1L84.6,167.1z"/>
	<path class="st10" d="M93.3,162.8l-1.9,9.5h0.1c1.3-2,3.2-3,5.1-3c3.2,0,4.4,2.7,4.4,5.3c0,4.5-3.2,10-9.1,10
		c-2.6,0-4.5-1.1-4.5-3.8c0-0.7,0.1-1.6,0.2-2.3l3.2-15.7H93.3z M90.1,178.6c-0.1,0.5-0.2,1.1-0.2,1.8c0,1.4,0.8,2.2,2.4,2.2
		c3.8,0,6.1-4.5,6.1-7.7c0-1.8-0.8-3.5-2.8-3.5c-2.2,0-4.4,2.2-5.1,5.7L90.1,178.6z"/>
	<path class="st10" d="M116.9,169.6l-2,10.4c-0.3,1.6-0.5,3.1-0.7,4.3H112l0.4-2.7h-0.1c-1.3,1.9-3.2,3.1-5.2,3.1
		c-1.9,0-3.8-0.9-3.8-4.2c0-0.7,0.1-1.5,0.3-2.4l1.6-8.3h2.5l-1.5,8.2c-0.2,0.8-0.3,1.5-0.3,2.1c0,1.5,0.6,2.5,2.4,2.5
		c1.8,0,4.1-2.1,4.7-5.3l1.4-7.5H116.9z"/>
	<path class="st10" d="M118.7,181.7c0.7,0.4,2,0.9,3.1,0.9c1.7,0,2.8-1.1,2.8-2.4c0-1.1-0.5-1.8-2-2.7c-1.7-0.9-2.6-2.2-2.6-3.7
		c0-2.6,2.2-4.5,5.3-4.5c1.3,0,2.5,0.4,3.1,0.7l-0.7,1.9c-0.5-0.3-1.5-0.7-2.5-0.7c-1.5,0-2.6,0.9-2.6,2.2c0,1.1,0.7,1.7,2,2.4
		c1.6,0.9,2.7,2.2,2.7,3.8c0,3.1-2.5,4.8-5.6,4.8c-1.6,0-3-0.5-3.6-1L118.7,181.7z"/>
	<path class="st10" d="M135.8,181.1c1.1,0.7,2.6,1.3,4.3,1.3c2.3,0,4.4-1.4,4.4-3.8c0-1.5-0.9-2.6-3-3.8c-2.6-1.4-4-3-4-5.2
		c0-3.6,3.1-6,6.9-6c2,0,3.4,0.6,4.2,1.1l-0.9,2c-0.6-0.4-1.9-1-3.5-0.9c-2.5,0-4,1.7-4,3.3c0,1.7,1,2.6,3.1,3.8
		c2.5,1.3,3.9,2.9,3.9,5.4c0,3.5-2.8,6.3-7.3,6.3c-2.1,0-4-0.7-4.9-1.4L135.8,181.1z"/>
	<path class="st10" d="M149.4,184.3l4.1-21.5h2.5l-4.1,21.5H149.4z"/>
	<path class="st10" d="M170.4,175.4c0,4.5-3.2,9.2-8.1,9.2c-3.7,0-5.7-2.7-5.7-6c0-4.8,3.4-9.3,8.1-9.3
		C168.6,169.3,170.4,172.3,170.4,175.4z M159.1,178.5c0,2.4,1.3,4.1,3.4,4.1c3,0,5.2-3.8,5.2-7.2c0-1.7-0.8-4.1-3.4-4.1
		C161.2,171.3,159.1,175.1,159.1,178.5z"/>
	<path class="st10" d="M175.2,169.6l1.3,8.3c0.2,1.7,0.4,2.8,0.5,3.6h0.1c0.3-0.8,0.7-1.8,1.5-3.4l4.5-8.5h2.7l-8.1,14.6h-2.5
		l-2.5-14.6H175.2z"/>
	<path class="st10" d="M194.8,184.3c0-0.9,0.2-2.3,0.3-3.8h-0.1c-1.6,3-3.6,4.1-5.7,4.1c-2.6,0-4.2-2.1-4.2-4.8
		c0-5.1,3.7-10.5,10.1-10.5c1.4,0,2.9,0.2,3.9,0.6l-1.5,7.6c-0.5,2.5-0.7,5.1-0.6,6.8H194.8z M196.5,171.5c-0.4-0.1-0.9-0.2-1.8-0.2
		c-3.8,0-6.9,4-6.9,8c0,1.6,0.6,3.2,2.5,3.2c2.1,0,4.6-2.7,5.3-6.6L196.5,171.5z"/>
	<path class="st10" d="M200.9,184.3l4-21.5h2.5l-2.6,13.4h0.1c0.5-0.5,1-1.1,1.4-1.5l5.2-5.1h3.1l-6.4,6l4.4,8.6h-2.8l-3.5-7.2
		l-1.8,1.7l-1.1,5.6H200.9z"/>
	<path class="st10" d="M214.9,184.3l2.8-14.6h2.5l-2.8,14.6H214.9z M219.6,167.1c-0.8,0-1.4-0.7-1.4-1.6c0-1,0.8-1.7,1.7-1.7
		s1.5,0.7,1.5,1.6C221.3,166.4,220.6,167.1,219.6,167.1L219.6,167.1z"/>
	<path class="st10" d="M231.5,184.3c0-0.9,0.2-2.3,0.3-3.8h-0.1c-1.6,3-3.6,4.1-5.7,4.1c-2.6,0-4.2-2.1-4.2-4.8
		c0-5.1,3.7-10.5,10.1-10.5c1.4,0,2.9,0.2,3.9,0.6l-1.5,7.6c-0.5,2.5-0.7,5.1-0.6,6.8H231.5z M233.1,171.5c-0.4-0.1-0.9-0.2-1.8-0.2
		c-3.8,0-6.9,4-6.9,8c0,1.6,0.6,3.2,2.5,3.2c2.1,0,4.6-2.7,5.3-6.6L233.1,171.5z"/>
</g>
</svg>
