<?xml version="1.0" encoding="utf-8"?>
<!-- Generator: Adobe Illustrator 27.9.0, SVG Export Plug-In . SVG Version: 6.00 Build 0)  -->
<svg version="1.1" id="Layer_1" xmlns="http://www.w3.org/2000/svg" xmlns:xlink="http://www.w3.org/1999/xlink" x="0px" y="0px"
	 viewBox="0 0 285.4 190.1" style="enable-background:new 0 0 285.4 190.1;" xml:space="preserve">
<style type="text/css">
	.st0{fill:none;}
	.st1{stroke:#000000;stroke-width:0.5;stroke-miterlimit:10;}
	.st2{fill:#FFFFFF;stroke:url(#SVGID_1_);stroke-width:9;stroke-miterlimit:10;}
	.st3{fill:#FFFFFF;stroke:url(#SVGID_00000183234307527873904700000016396714234727056314_);stroke-width:9;stroke-miterlimit:10;}
	.st4{fill:#FFFFFF;stroke:url(#SVGID_00000137846080725949650610000004681989411834917311_);stroke-width:9;stroke-miterlimit:10;}
	.st5{fill:#FFFFFF;stroke:url(#SVGID_00000106110330688827031470000014623637264920996999_);stroke-width:9;stroke-miterlimit:10;}
	.st6{fill:#FFFFFF;stroke:url(#SVGID_00000098915250445639082690000008740179377933120654_);stroke-width:9;stroke-miterlimit:10;}
	.st7{fill:#FFFFFF;stroke:url(#SVGID_00000168798099535937932050000016271508042242401922_);stroke-width:9;stroke-miterlimit:10;}
	.st8{fill:#FFFFFF;stroke:url(#SVGID_00000044874769094661728510000011414353377647819682_);stroke-width:9;stroke-miterlimit:10;}
	.st9{fill:#FFFFFF;stroke:url(#SVGID_00000036227999152113607470000009417295820734450324_);stroke-width:9;stroke-miterlimit:10;}
	.st10{fill:#FFFFFF;stroke:url(#SVGID_00000128477368871977308900000017205884636817340574_);stroke-width:9;stroke-miterlimit:10;}
</style>
<g id="Freibus_Slovkia">
	<rect x="2.4" y="166.6" class="st0" width="329.8" height="58.9"/>
	<path class="st1" d="M9.1,171.5v5.6h7.7v3.1H9.1v8.3H5.2v-20.3h12v3.2H9.1z"/>
	<path class="st1" d="M32.1,178.9c0-0.6,0-1.1-0.1-1.5c-0.1-0.4-0.2-0.8-0.4-1c-0.2-0.3-0.4-0.5-0.6-0.6c-0.2-0.1-0.5-0.2-0.9-0.2
		c-0.6,0-1.1,0.2-1.7,0.7s-1.2,1.2-2,2.3v10h-3.9v-15.8H26l0.1,2.3c0.3-0.4,0.6-0.8,0.9-1.1s0.7-0.6,1.1-0.8
		c0.4-0.2,0.8-0.4,1.3-0.5c0.5-0.1,1-0.2,1.6-0.2c0.8,0,1.5,0.1,2.1,0.4c0.6,0.3,1.1,0.7,1.6,1.2c0.4,0.5,0.7,1.2,0.9,2
		c0.2,0.8,0.3,1.8,0.3,2.8H32.1z"/>
	<path class="st1" d="M53.2,179.4c0,0.3,0,0.6,0,1s0,0.8-0.1,1.2H42.7c0,0.7,0.1,1.3,0.3,1.8c0.2,0.5,0.5,1,0.9,1.3
		c0.4,0.4,0.9,0.6,1.4,0.8c0.5,0.2,1.1,0.3,1.8,0.3c0.8,0,1.6-0.1,2.5-0.2c0.9-0.1,1.8-0.3,2.7-0.6v3c-0.4,0.1-0.8,0.2-1.3,0.3
		c-0.5,0.1-1,0.2-1.5,0.2c-0.5,0.1-1,0.1-1.5,0.2c-0.5,0-1,0.1-1.5,0.1c-1.2,0-2.3-0.2-3.2-0.5c-1-0.3-1.8-0.8-2.4-1.5
		s-1.2-1.5-1.5-2.5c-0.4-1-0.5-2.1-0.5-3.4c0-1.3,0.2-2.4,0.5-3.5c0.4-1,0.8-1.9,1.5-2.7c0.6-0.8,1.4-1.3,2.3-1.7
		c0.9-0.4,1.9-0.6,3.1-0.6c1.1,0,2.1,0.2,3,0.5c0.9,0.3,1.6,0.8,2.2,1.5c0.6,0.6,1,1.4,1.3,2.2S53.2,178.4,53.2,179.4z M49.3,178.9
		c0-0.6-0.1-1.2-0.2-1.6c-0.2-0.5-0.4-0.8-0.7-1.1c-0.3-0.3-0.6-0.5-1-0.7c-0.4-0.1-0.8-0.2-1.2-0.2c-1,0-1.7,0.3-2.3,1
		c-0.6,0.6-1,1.5-1.1,2.7H49.3z"/>
	<path class="st1" d="M62,175.7h-4.5v-2.9h8.3v12.8h4.5v2.9H57v-2.9h5V175.7z M66.2,168.4c0,0.3-0.1,0.7-0.2,1
		c-0.1,0.3-0.3,0.6-0.5,0.8c-0.2,0.2-0.5,0.4-0.8,0.5c-0.3,0.1-0.6,0.2-1,0.2c-0.4,0-0.7-0.1-1-0.2c-0.3-0.1-0.6-0.3-0.8-0.5
		c-0.2-0.2-0.4-0.5-0.5-0.8s-0.2-0.6-0.2-1c0-0.3,0.1-0.7,0.2-1s0.3-0.6,0.5-0.8c0.2-0.2,0.5-0.4,0.8-0.5c0.3-0.1,0.6-0.2,1-0.2
		c0.4,0,0.7,0.1,1,0.2c0.3,0.1,0.6,0.3,0.8,0.5c0.2,0.2,0.4,0.5,0.5,0.8C66.1,167.8,66.2,168.1,66.2,168.4z"/>
	<path class="st1" d="M88.6,180.3c0,1.4-0.2,2.7-0.6,3.8c-0.4,1.1-1,1.9-1.7,2.6c-0.7,0.7-1.6,1.2-2.6,1.6c-1,0.3-2.1,0.5-3.2,0.5
		c-1.1,0-2.2-0.1-3.2-0.3c-1-0.2-1.9-0.4-2.8-0.7v-21.3h3.8v5.2l-0.2,3.1c0.6-0.7,1.2-1.3,2-1.8c0.8-0.4,1.7-0.7,2.7-0.7
		c0.9,0,1.8,0.2,2.5,0.6c0.7,0.4,1.3,0.9,1.8,1.6c0.5,0.7,0.9,1.5,1.1,2.5C88.4,178,88.6,179.1,88.6,180.3z M84.6,180.5
		c0-0.9-0.1-1.6-0.2-2.2c-0.1-0.6-0.3-1.1-0.5-1.5c-0.2-0.4-0.5-0.7-0.9-0.9c-0.3-0.2-0.7-0.3-1.2-0.3c-0.6,0-1.3,0.3-1.8,0.8
		c-0.6,0.5-1.2,1.2-1.9,2.1v6.9c0.3,0.1,0.7,0.2,1.1,0.3c0.4,0.1,0.9,0.1,1.3,0.1c0.6,0,1.1-0.1,1.6-0.4s0.9-0.6,1.3-1.1
		c0.3-0.5,0.6-1,0.8-1.7C84.5,182,84.6,181.3,84.6,180.5z"/>
	<path class="st1" d="M95.6,172.7V183c0,0.9,0.2,1.5,0.5,1.9c0.3,0.4,0.8,0.7,1.5,0.7c0.6,0,1.2-0.3,1.8-0.8
		c0.6-0.5,1.2-1.2,1.9-2.1v-10h3.8v15.8h-3.3l-0.1-2.3c-0.3,0.4-0.7,0.8-1,1.1s-0.7,0.6-1.1,0.8c-0.4,0.2-0.8,0.4-1.3,0.5
		c-0.5,0.1-1,0.2-1.6,0.2c-0.8,0-1.5-0.1-2.1-0.4s-1.1-0.6-1.5-1.1s-0.7-1.1-0.9-1.7c-0.2-0.7-0.3-1.4-0.3-2.3v-10.6H95.6z"/>
	<path class="st1" d="M122.3,183.9c0,0.9-0.2,1.7-0.6,2.3c-0.4,0.6-0.9,1.2-1.6,1.6c-0.7,0.4-1.4,0.7-2.2,0.9
		c-0.8,0.2-1.7,0.3-2.6,0.3c-1.2,0-2.2-0.1-3.1-0.2c-0.9-0.1-1.8-0.3-2.6-0.5v-3.4c1,0.4,1.9,0.7,2.9,0.9c1,0.2,1.9,0.3,2.7,0.3
		c1,0,1.7-0.2,2.2-0.5c0.5-0.3,0.7-0.7,0.7-1.2c0-0.2-0.1-0.5-0.2-0.7c-0.1-0.2-0.3-0.4-0.6-0.6c-0.3-0.2-0.7-0.4-1.2-0.6
		s-1.2-0.4-2-0.6c-0.8-0.2-1.5-0.5-2-0.7c-0.6-0.3-1.1-0.6-1.5-1c-0.4-0.4-0.7-0.8-0.9-1.3s-0.3-1.1-0.3-1.7c0-0.6,0.1-1.2,0.4-1.8
		c0.3-0.6,0.7-1.1,1.3-1.5c0.6-0.4,1.3-0.8,2.1-1c0.9-0.2,1.9-0.4,3-0.4c1,0,1.9,0.1,2.6,0.2c0.8,0.1,1.4,0.2,2,0.3v3.1
		c-0.9-0.3-1.7-0.5-2.5-0.6c-0.8-0.1-1.6-0.2-2.4-0.2c-0.8,0-1.4,0.1-1.9,0.4c-0.5,0.3-0.7,0.7-0.7,1.2c0,0.2,0,0.5,0.1,0.6
		c0.1,0.2,0.3,0.4,0.6,0.5s0.7,0.4,1.1,0.6s1.1,0.4,1.9,0.6c0.9,0.3,1.7,0.5,2.3,0.8c0.6,0.3,1.1,0.6,1.5,1s0.6,0.8,0.8,1.3
		C122.2,182.7,122.3,183.3,122.3,183.9z"/>
	<path class="st1" d="M157.9,182.4c0,1.1-0.2,2.1-0.6,2.9c-0.4,0.8-1,1.5-1.7,2c-0.7,0.5-1.6,0.9-2.6,1.2c-1,0.3-2.1,0.4-3.3,0.4
		c-1.1,0-2.1-0.1-3.1-0.2s-2-0.3-2.9-0.6v-3.8c0.5,0.2,1,0.3,1.5,0.5c0.5,0.1,1,0.3,1.6,0.4s1,0.2,1.6,0.3c0.5,0.1,1,0.1,1.5,0.1
		c0.7,0,1.3-0.1,1.8-0.2s0.9-0.3,1.2-0.5c0.3-0.2,0.6-0.5,0.7-0.8c0.1-0.3,0.2-0.6,0.2-1c0-0.5-0.1-0.9-0.4-1.2s-0.7-0.6-1.1-0.9
		c-0.5-0.3-1-0.5-1.6-0.7s-1.2-0.4-1.8-0.7c-0.6-0.2-1.2-0.5-1.8-0.8s-1.1-0.7-1.6-1.1c-0.5-0.4-0.8-1-1.1-1.6s-0.4-1.4-0.4-2.2
		c0-0.8,0.1-1.6,0.4-2.3c0.3-0.7,0.7-1.3,1.4-1.9c0.6-0.5,1.4-1,2.4-1.3c1-0.3,2.1-0.5,3.5-0.5c0.4,0,0.8,0,1.3,0.1
		c0.4,0,0.9,0.1,1.3,0.1c0.4,0.1,0.8,0.1,1.2,0.2c0.4,0.1,0.8,0.2,1.1,0.2v3.5c-0.3-0.1-0.7-0.2-1.1-0.3c-0.4-0.1-0.8-0.2-1.2-0.3
		c-0.4-0.1-0.8-0.1-1.3-0.2s-0.8-0.1-1.2-0.1c-0.7,0-1.2,0.1-1.7,0.2c-0.5,0.1-0.8,0.3-1.1,0.5s-0.5,0.4-0.7,0.7s-0.2,0.6-0.2,0.9
		c0,0.4,0.1,0.8,0.4,1.1c0.3,0.3,0.7,0.6,1.1,0.8s1,0.5,1.6,0.7s1.2,0.4,1.8,0.7c0.6,0.2,1.2,0.5,1.8,0.8c0.6,0.3,1.1,0.7,1.6,1.1
		s0.8,1,1.1,1.6C157.8,180.8,157.9,181.5,157.9,182.4z"/>
	<path class="st1" d="M166.8,169.5h-4.5v-2.9h8.3v19h4.5v2.9h-13.4v-2.9h5V169.5z"/>
	<path class="st1" d="M193.4,180.5c0,1.2-0.2,2.4-0.5,3.4s-0.9,1.9-1.5,2.6c-0.7,0.7-1.5,1.3-2.4,1.7s-2.1,0.6-3.3,0.6
		c-1.2,0-2.2-0.2-3.1-0.5c-0.9-0.3-1.7-0.9-2.3-1.5c-0.6-0.7-1.1-1.5-1.5-2.5c-0.3-1-0.5-2.2-0.5-3.6c0-1.3,0.2-2.4,0.5-3.4
		c0.4-1,0.9-1.9,1.5-2.6c0.7-0.7,1.5-1.3,2.4-1.7s2-0.6,3.3-0.6c1.2,0,2.2,0.2,3.1,0.5c0.9,0.3,1.7,0.9,2.3,1.5
		c0.6,0.7,1.1,1.5,1.5,2.5C193.2,178,193.4,179.2,193.4,180.5z M189.4,180.6c0-1.6-0.3-2.9-0.9-3.7s-1.5-1.2-2.7-1.2
		c-0.7,0-1.2,0.1-1.7,0.4c-0.5,0.3-0.8,0.6-1.1,1.1c-0.3,0.5-0.5,1-0.7,1.6s-0.2,1.2-0.2,1.9c0,1.6,0.3,2.9,1,3.7s1.6,1.2,2.7,1.2
		c0.6,0,1.2-0.1,1.6-0.4c0.5-0.3,0.8-0.6,1.1-1.1c0.3-0.4,0.5-1,0.7-1.6C189.4,181.9,189.4,181.3,189.4,180.6z"/>
	<path class="st1" d="M205.5,188.5h-4.4l-6.3-15.8h4.2l3.3,8.9l1,2.9l1-2.8l3.3-9.1h4.1L205.5,188.5z"/>
	<path class="st1" d="M224,188.5l-0.1-2.1c-0.3,0.4-0.7,0.7-1,1s-0.8,0.6-1.2,0.8c-0.4,0.2-0.9,0.4-1.4,0.5
		c-0.5,0.1-1.1,0.2-1.7,0.2c-0.8,0-1.5-0.1-2.1-0.4s-1.1-0.6-1.5-1c-0.4-0.4-0.7-0.9-0.9-1.5s-0.3-1.3-0.3-2c0-0.7,0.2-1.4,0.5-2.1
		s0.8-1.2,1.4-1.6s1.5-0.8,2.4-1.1s2.1-0.4,3.4-0.4h2.1v-0.9c0-0.4-0.1-0.8-0.2-1.1c-0.1-0.3-0.3-0.6-0.6-0.8
		c-0.3-0.2-0.6-0.4-1-0.5c-0.4-0.1-0.9-0.2-1.5-0.2c-0.9,0-1.8,0.1-2.8,0.3c-0.9,0.2-1.8,0.5-2.6,0.9v-3c0.8-0.3,1.6-0.5,2.6-0.7
		s2-0.3,3.1-0.3c1.2,0,2.2,0.1,3,0.3s1.5,0.6,2.1,1c0.5,0.4,0.9,1,1.2,1.7c0.3,0.7,0.4,1.4,0.4,2.3v10.8H224z M223.5,181.5h-2.3
		c-0.6,0-1.2,0.1-1.6,0.2s-0.8,0.3-1.1,0.5c-0.3,0.2-0.5,0.5-0.6,0.8c-0.1,0.3-0.2,0.6-0.2,0.9c0,0.6,0.2,1.1,0.6,1.5
		c0.4,0.3,1,0.5,1.7,0.5c0.5,0,1.1-0.2,1.6-0.6c0.6-0.4,1.2-0.9,1.9-1.6V181.5z"/>
	<path class="st1" d="M241.4,188.5l-5.8-7.9v7.9h-3.8v-21.9h3.8v12.8l5.5-6.7h4.7l-6.4,7.2l6.9,8.6H241.4z"/>
	<path class="st1" d="M254.1,175.7h-4.5v-2.9h8.3v12.8h4.5v2.9h-13.4v-2.9h5V175.7z M258.3,168.4c0,0.3-0.1,0.7-0.2,1
		s-0.3,0.6-0.5,0.8c-0.2,0.2-0.5,0.4-0.8,0.5s-0.6,0.2-1,0.2c-0.4,0-0.7-0.1-1-0.2c-0.3-0.1-0.6-0.3-0.8-0.5
		c-0.2-0.2-0.4-0.5-0.5-0.8s-0.2-0.6-0.2-1c0-0.3,0.1-0.7,0.2-1s0.3-0.6,0.5-0.8c0.2-0.2,0.5-0.4,0.8-0.5c0.3-0.1,0.6-0.2,1-0.2
		c0.4,0,0.7,0.1,1,0.2c0.3,0.1,0.6,0.3,0.8,0.5c0.2,0.2,0.4,0.5,0.5,0.8S258.3,168.1,258.3,168.4z"/>
	<path class="st1" d="M276.4,188.5l-0.1-2.1c-0.3,0.4-0.7,0.7-1,1s-0.8,0.6-1.2,0.8c-0.4,0.2-0.9,0.4-1.4,0.5
		c-0.5,0.1-1.1,0.2-1.7,0.2c-0.8,0-1.5-0.1-2.1-0.4s-1.1-0.6-1.5-1c-0.4-0.4-0.7-0.9-0.9-1.5s-0.3-1.3-0.3-2c0-0.7,0.2-1.4,0.5-2.1
		s0.8-1.2,1.4-1.6s1.5-0.8,2.4-1.1s2.1-0.4,3.4-0.4h2.1v-0.9c0-0.4-0.1-0.8-0.2-1.1c-0.1-0.3-0.3-0.6-0.6-0.8
		c-0.3-0.2-0.6-0.4-1-0.5c-0.4-0.1-0.9-0.2-1.5-0.2c-0.9,0-1.8,0.1-2.8,0.3c-0.9,0.2-1.8,0.5-2.6,0.9v-3c0.8-0.3,1.6-0.5,2.6-0.7
		s2-0.3,3.1-0.3c1.2,0,2.2,0.1,3,0.3s1.5,0.6,2.1,1c0.5,0.4,0.9,1,1.2,1.7c0.3,0.7,0.4,1.4,0.4,2.3v10.8H276.4z M275.9,181.5h-2.3
		c-0.6,0-1.2,0.1-1.6,0.2s-0.8,0.3-1.1,0.5c-0.3,0.2-0.5,0.5-0.6,0.8c-0.1,0.3-0.2,0.6-0.2,0.9c0,0.6,0.2,1.1,0.6,1.5
		c0.4,0.3,1,0.5,1.7,0.5c0.5,0,1.1-0.2,1.6-0.6c0.6-0.4,1.2-0.9,1.9-1.6V181.5z"/>
</g>
<linearGradient id="SVGID_1_" gradientUnits="userSpaceOnUse" x1="1.7394" y1="115.9261" x2="188.4239" y2="115.9261">
	<stop  offset="0" style="stop-color:#F5841F"/>
	<stop  offset="1" style="stop-color:#FCB614"/>
</linearGradient>
<path class="st2" d="M130.3,104.4c-1.5-0.5-3-0.9-4.5-1.1c-3.7-0.7-7.4-0.8-11.1-0.7c-3.8,0.1-7.7,0.3-11.5,0.8
	c-4.2,0.5-8.4,1.3-12.6,2.3c-5.7,1.4-11.3,2.8-17,4c-3.7,0.7-7.4,1.4-11.1,2.1c-3,0.6-6,1.1-9,1.6c-2.3,0.4-4.6,0.6-6.9,0.9
	c-2.7,0.3-5.4,0.3-8.2,0.4c-2.9,0.1-5.8,0-8.7-0.2c-2.8-0.1-5.7-0.6-8.5-1c-4.5-0.8-9-1.8-13.4-2.9c-0.3-0.1-0.6-0.1-1-0.3
	c-0.6-0.2-0.9-1.1-0.5-1.6c0.1-0.1,0.4-0.3,0.5-0.3c0.5,0,1.1,0.1,1.6,0.2c2.4,0.6,4.8,1.2,7.2,1.7c4.2,0.9,8.4,1.7,12.7,2.1
	c1.8,0.2,3.7,0.3,5.6,0.3c2.4,0,4.9,0,7.3,0c4.1-0.1,8.2-0.6,12.2-1.3c3.7-0.7,7.5-1.4,11.2-2c4.4-0.8,8.7-1.7,13-2.6
	c4.1-0.9,8.2-1.9,12.3-3c4.4-1.1,8.8-1.8,13.3-2.3c3.2-0.3,6.3-0.6,9.5-0.6c1.7,0,3.3-0.1,5-0.1c2.6,0,5.1,0.2,7.7,0.6
	c2.2,0.3,4.3,0.8,6.4,1.5c2,0.7,4,1.3,6,2c0.4,0.1,0.7,0.2,0.9,0.6c0.3,1,0,1.5-1,1.5c-0.4,0-0.7-0.1-1.1-0.2
	c-0.5-0.1-1-0.2-1.4-0.4c-1.2-0.3-2.4-0.2-3.7,0.1c-2,0.5-3.8,1.5-5.4,2.8c-1.9,1.5-3.6,3.2-5.1,5.1c-1.4,1.8-2.4,3.8-2.9,6
	c-0.3,1.3-0.3,2.6-0.1,3.9c0.4,2.7,1.5,5.1,2.9,7.5c1.3,2.1,2.9,3.9,4.6,5.7c0.5,0.6,1.1,1.1,1.7,1.7c2.2,2.1,4.7,3.7,7.6,4.8
	c2.6,1,5.3,1.9,8.1,2.3c2.8,0.4,5.7,0.5,8.5,0.2c7.2-0.7,13.4-3.6,19.2-7.8c1.2-0.9,2.3-1.9,3.3-3c1.7-2,3.3-4,4.6-6.3
	c1.6-2.9,2.5-6,2.9-9.3c0.3-2.8,0.3-5.6-0.1-8.4c-0.4-3.2-1.4-6.2-2.9-9c-1.7-3.2-3.8-6.1-6.3-8.7c-2.7-2.8-5.8-5.2-9.5-6.6
	c-2.8-1.1-5.8-1.8-8.8-1.6c-2.6,0.2-5.2,0.7-7.7,1.6c-2.4,0.9-4.7,1.9-6.9,3c-0.4,0.2-0.8,0.4-1.3,0.3c-0.5,0-0.7-0.2-0.8-0.8
	c0-0.5,0.1-0.9,0.6-1.2c3.8-1.8,7.5-3.6,11.7-4.3c3.2-0.6,6.5-0.8,9.7-0.2c3.6,0.7,6.9,2.1,9.9,4.3c3.3,2.4,6.1,5.4,8.5,8.8
	c2.7,3.8,4.6,8,5.6,12.6c0.8,3.4,1.1,6.8,0.5,10.3c-0.3,1.3-0.4,2.7-0.7,4c-0.6,2.5-1.7,4.8-3,7c-2.6,4.2-5.6,8-9.9,10.6
	c-1.3,0.8-2.7,1.6-4.1,2.4c-3.5,1.9-7.2,3.2-11.1,3.8c-3,0.5-6,0.7-9,0.5c-2.1-0.1-4.3-0.3-6.4-0.9c-2.6-0.6-5.1-1.5-7.5-2.6
	c-2.3-1.1-4.3-2.5-6.1-4.2c-1.7-1.7-3.4-3.4-4.9-5.3c-1.8-2.4-3.3-5-4.2-7.8c-0.8-2.4-1-4.9-0.6-7.5c0.1-0.8,0.3-1.6,0.6-2.4
	c0.8-2.1,1.9-4.1,3.4-5.7c1.2-1.3,2.4-2.5,3.7-3.7c1.7-1.6,3.6-2.8,5.8-3.4c0.1,0,0.2-0.1,0.3-0.1
	C130.2,104.6,130.2,104.5,130.3,104.4z"/>
<linearGradient id="SVGID_00000013911125321319841690000003605418295047178664_" gradientUnits="userSpaceOnUse" x1="195.3605" y1="137.3783" x2="283.0162" y2="137.3783">
	<stop  offset="0" style="stop-color:#FCB614"/>
	<stop  offset="1" style="stop-color:#F58420"/>
</linearGradient>
<path style="fill:#FFFFFF;stroke:url(#SVGID_00000013911125321319841690000003605418295047178664_);stroke-width:9;stroke-miterlimit:10;" d="
	M252.2,143.7c-4.8,0-9.5-0.8-14.1-2.4c-4.6-1.5-9.1-3.2-13.4-5.5c-1.9-1-3.9-1.9-5.9-2.4c-1.3-0.3-2.7-0.6-4-0.7
	c-4.2-0.3-8.3,0.1-12.4,1.2c-0.6,0.1-1.1,0.3-1.7,0.3c-0.4,0-0.7-0.1-0.7-0.5c-0.1-0.5,0-0.9,0.4-1c0.4-0.1,0.8-0.2,1.2-0.4
	c4.3-1.2,8.7-1.5,13.1-1.3c2.7,0.1,5.3,0.7,7.8,1.8c1.8,0.8,3.5,1.6,5.3,2.5c2.8,1.4,5.7,2.6,8.7,3.6c2.1,0.7,4.2,1.4,6.4,2
	c3.2,0.8,6.4,1.1,9.7,1.1c4.6-0.1,9.2-0.6,13.7-2.1c2.8-0.9,5.5-2,8.3-3c0.8-0.3,1.5-0.6,2.3-0.9c0.3-0.1,0.6-0.2,0.9-0.3
	c0.4,0,0.7,0.1,0.8,0.4c0.1,0.4,0,0.9-0.4,1.1c-0.1,0.1-0.3,0.2-0.4,0.2c-4,1.6-8,3.2-12.1,4.5c-2,0.6-4.1,1-6.2,1.2
	C257,143.4,254.6,143.5,252.2,143.7z"/>
<linearGradient id="SVGID_00000091733991325187542700000007918249881726845106_" gradientUnits="userSpaceOnUse" x1="69.1651" y1="45.3535" x2="118.8301" y2="45.3535">
	<stop  offset="0" style="stop-color:#F5841F"/>
	<stop  offset="1" style="stop-color:#FCB614"/>
</linearGradient>
<path style="fill:#FFFFFF;stroke:url(#SVGID_00000091733991325187542700000007918249881726845106_);stroke-width:9;stroke-miterlimit:10;" d="
	M114.3,71.2c0,0.1-0.1,0.4-0.3,0.5c-0.3,0.2-0.7,0.2-0.9-0.1c-0.3-0.2-0.5-0.5-0.7-0.7c-1.5-1.7-3-3.3-4.5-5
	c-3.4-3.8-6.8-7.6-9.9-11.6c-5-6.2-9.7-12.6-14.2-19.2c-3.2-4.6-6.2-9.4-9.3-14c-0.2-0.3-0.5-0.7-0.6-1.1c-0.2-0.4-0.1-0.8,0.2-1
	c0.3-0.2,0.9-0.1,1.1,0.2c0.2,0.3,0.4,0.5,0.6,0.8c3,4.6,6,9.2,9.1,13.7c5,7.3,10.3,14.5,15.9,21.4c3.5,4.2,7.1,8.3,10.8,12.3
	c0.8,0.9,1.7,1.8,2.5,2.8C114.2,70.5,114.4,70.7,114.3,71.2z"/>
<linearGradient id="SVGID_00000172418012581900346410000002724691474621963676_" gradientUnits="userSpaceOnUse" x1="158.2007" y1="34.3472" x2="181.2021" y2="34.3472">
	<stop  offset="0.3317" style="stop-color:#FCB614"/>
	<stop  offset="0.7462" style="stop-color:#F5841F"/>
</linearGradient>
<path style="fill:#FFFFFF;stroke:url(#SVGID_00000172418012581900346410000002724691474621963676_);stroke-width:9;stroke-miterlimit:10;" d="
	M175.1,6.6c1.5-0.4,1.7,0.1,1.5,1.3c-0.2,1.1-0.4,2.1-0.6,3.2c-1.4,6.4-2.7,12.8-4.2,19.1c-1.6,6.8-3.2,13.7-4.8,20.5
	c-0.8,3.4-1.6,6.8-2.4,10.2c-0.1,0.3-0.2,0.6-0.3,0.8c-0.2,0.3-0.6,0.5-1,0.4c-0.4-0.1-0.7-0.4-0.6-0.8c0-0.4,0.1-0.8,0.2-1.2
	c1.5-6.4,3.1-12.8,4.6-19.3c1.8-7.8,3.6-15.5,5.3-23.3c0.7-3.2,1.3-6.5,2-9.7C174.9,7.4,175,7,175.1,6.6z"/>
<linearGradient id="SVGID_00000050629711542397931380000008771168190514194854_" gradientUnits="userSpaceOnUse" x1="196.9077" y1="71.3585" x2="241.7348" y2="71.3585">
	<stop  offset="0.3216" style="stop-color:#FCB614"/>
	<stop  offset="0.7236" style="stop-color:#F5841F"/>
</linearGradient>
<path style="fill:#FFFFFF;stroke:url(#SVGID_00000050629711542397931380000008771168190514194854_);stroke-width:9;stroke-miterlimit:10;" d="
	M201.4,83.7c0.1-0.1,0.1-0.4,0.3-0.6c0.4-0.4,0.8-0.7,1.2-1.1c3.4-2.7,6.8-5.3,10.2-8c6.9-5.4,14.2-10.4,21.5-15.3
	c0.3-0.2,0.6-0.4,0.9-0.6c0.2-0.1,0.4-0.2,0.6-0.2c0.4-0.1,0.8,0,0.9,0.3c0.2,0.4,0.2,0.7-0.1,1c-0.3,0.3-0.6,0.5-0.9,0.7
	c-2.7,1.8-5.5,3.7-8.2,5.5c-5.5,3.7-10.7,7.6-15.9,11.7c-3,2.3-6,4.7-8.9,7.1c-0.3,0.2-0.5,0.4-0.9,0.4
	C201.7,84.8,201.4,84.5,201.4,83.7z"/>
<linearGradient id="SVGID_00000121264504529734523740000016337035968383171463_" gradientUnits="userSpaceOnUse" x1="179.3432" y1="54.9553" x2="216.2521" y2="54.9553">
	<stop  offset="0.2563" style="stop-color:#FCB614"/>
	<stop  offset="0.6884" style="stop-color:#F5841F"/>
</linearGradient>
<path style="fill:#FFFFFF;stroke:url(#SVGID_00000121264504529734523740000016337035968383171463_);stroke-width:9;stroke-miterlimit:10;" d="
	M211.8,40.1c0,0.6-0.2,0.9-0.5,1.2c-1,1.2-1.9,2.4-2.9,3.6c-2.9,3.4-5.7,6.9-8.6,10.3c-2.1,2.5-4.4,4.8-6.7,7.2
	c-2.3,2.4-4.7,4.8-7.1,7.3c-0.3,0.3-0.5,0.5-0.8,0.7c-0.4,0.3-0.9,0.2-1.1-0.1c-0.3-0.3-0.3-0.8,0-1.1c0.2-0.3,0.4-0.5,0.7-0.7
	c1.7-1.8,3.5-3.5,5.2-5.3c5.6-5.6,10.8-11.5,15.8-17.6c1.3-1.6,2.6-3.3,4-4.9c0.2-0.3,0.4-0.5,0.6-0.7c0.3-0.3,0.7-0.3,1-0.1
	C211.6,39.7,211.7,40,211.8,40.1z"/>
<linearGradient id="SVGID_00000047052690934183870890000008840962750983030177_" gradientUnits="userSpaceOnUse" x1="205.5442" y1="99.9287" x2="254.8139" y2="99.9287">
	<stop  offset="0.3317" style="stop-color:#FCB614"/>
	<stop  offset="0.7136" style="stop-color:#F5841F"/>
</linearGradient>
<path style="fill:#FFFFFF;stroke:url(#SVGID_00000047052690934183870890000008840962750983030177_);stroke-width:9;stroke-miterlimit:10;" d="
	M211.1,104.5c-0.8,0-1.3-0.6-0.9-1.2c0.1-0.2,0.4-0.3,0.6-0.4c0.5-0.1,1.1-0.2,1.6-0.3c4.7-0.8,9.5-1.5,14.2-2.3
	c5.4-0.9,10.7-2,16-3.3c2-0.5,4.1-1,6.1-1.5c0.3-0.1,0.6-0.1,1-0.1c0.3,0,0.5,0.2,0.6,0.5c0.1,0.4,0,0.8-0.3,1
	c-0.3,0.1-0.5,0.2-0.8,0.3c-3.8,0.9-7.6,1.8-11.3,2.6c-5,1.1-10,2-15,2.8c-3.8,0.6-7.5,1.2-11.2,1.9
	C211.4,104.5,211.2,104.5,211.1,104.5z"/>
<linearGradient id="SVGID_00000119814935286755713290000006633162385855543985_" gradientUnits="userSpaceOnUse" x1="51" y1="79.0765" x2="92.7938" y2="79.0765">
	<stop  offset="0" style="stop-color:#F5841F"/>
	<stop  offset="1" style="stop-color:#FCB614"/>
</linearGradient>
<path style="fill:#FFFFFF;stroke:url(#SVGID_00000119814935286755713290000006633162385855543985_);stroke-width:9;stroke-miterlimit:10;" d="
	M87.4,88.9c-0.1-0.1-0.5-0.2-0.8-0.3c-1.6-0.9-3.2-1.9-4.8-2.8C73.4,80.9,65,76,56.6,71.1c-0.2-0.1-0.4-0.2-0.6-0.4
	c-0.4-0.3-0.5-0.6-0.4-1.1c0.1-0.3,0.3-0.4,0.6-0.4c0.4,0,0.7,0.2,1,0.3c1.3,0.8,2.6,1.5,4,2.3c8.6,5,17.3,10,25.9,15.1
	c0.3,0.2,0.6,0.3,0.9,0.5c0.3,0.2,0.4,0.4,0.4,0.7C88.3,88.7,88.1,88.9,87.4,88.9z"/>
<linearGradient id="SVGID_00000181803885950655894770000006439681477522183844_" gradientUnits="userSpaceOnUse" x1="123.6729" y1="47.1744" x2="142.7176" y2="47.1744">
	<stop  offset="0" style="stop-color:#F5841F"/>
	<stop  offset="1" style="stop-color:#FCB614"/>
</linearGradient>
<path style="fill:#FFFFFF;stroke:url(#SVGID_00000181803885950655894770000006439681477522183844_);stroke-width:9;stroke-miterlimit:10;" d="
	M138.2,64.3c0,0.6-0.2,0.9-0.6,1c-0.4,0.1-0.7-0.1-0.9-0.5c-0.1-0.4-0.2-0.9-0.3-1.3c-1.9-7.9-3.8-15.7-5.7-23.6
	c-0.7-3-1.6-5.9-2.3-8.9c-0.1-0.4-0.2-0.8-0.2-1.2c0-0.4,0.2-0.6,0.4-0.7c0.4-0.1,0.8,0,0.9,0.4c0.1,0.3,0.2,0.6,0.3,0.9
	c0.9,3.2,1.7,6.5,2.5,9.7c1.9,7.7,3.7,15.4,5.6,23.1C138.1,63.6,138.2,64,138.2,64.3z"/>
<g>
</g>
<g>
</g>
<g>
</g>
<g>
</g>
<g>
</g>
<g>
</g>
<g>
</g>
<g>
</g>
<g>
</g>
<g>
</g>
<g>
</g>
<g>
</g>
<g>
</g>
<g>
</g>
<g>
</g>
</svg>
